<?xml version="1.0" encoding="UTF-8" standalone="no"?><!DOCTYPE svg PUBLIC "-//W3C//DTD SVG 1.1//EN" "http://www.w3.org/Graphics/SVG/1.1/DTD/svg11.dtd"><svg width="100%" height="100%" viewBox="0 0 2942 1659" version="1.1" xmlns="http://www.w3.org/2000/svg" xmlns:xlink="http://www.w3.org/1999/xlink" xml:space="preserve" xmlns:serif="http://www.serif.com/" style="fill-rule:evenodd;clip-rule:evenodd;stroke-linejoin:round;stroke-miterlimit:2;"><g><g><g><path d="M1260.93,602.889c35.141,145.81 39.075,294.817 10.208,438.333c-31.006,154.163 -99.572,299.389 -199.471,423.494c-58.234,72.334 -126.592,137.387 -203.319,193.42c-8.589,6.271 -20.843,-6.037 -12.203,-12.341c260.659,-190.113 414.792,-481.915 421.733,-794.663c1.822,-82.232 -6.145,-165.379 -24.367,-247.047c-0.987,-4.426 6.349,-5.642 7.419,-1.196" style="fill:#242e6b;fill-rule:nonzero;"/></g><g><path d="M1231.74,305.198c0,-0 164.781,170.735 25.796,310.619c-157.106,-131.63 -25.796,-310.619 -25.796,-310.619" style="fill:#242e6b;fill-rule:nonzero;"/></g><g><path d="M1541.02,508.217c0,0 -56.603,211.42 -268.331,175.796c25.497,-185.919 268.331,-175.796 268.331,-175.796" style="fill:#242e6b;fill-rule:nonzero;"/></g><g><path d="M1554.78,666.806c0,0 -56.604,211.42 -268.325,175.797c25.496,-185.919 268.325,-175.797 268.325,-175.797" style="fill:#242e6b;fill-rule:nonzero;"/></g><g><path d="M1541.42,834.118c-0,0 -56.606,211.424 -268.331,175.795c25.495,-185.914 268.331,-175.795 268.331,-175.795" style="fill:#242e6b;fill-rule:nonzero;"/></g><g><path d="M1521.62,1024.24c-0,-0 -82.642,202.849 -290.081,145.976c48.379,-180.87 290.081,-145.976 290.081,-145.976" style="fill:#242e6b;fill-rule:nonzero;"/></g><g><path d="M1465.47,1232.26c-0,0 -115.848,187.365 -313.469,103.166c78.055,-170.536 313.469,-103.166 313.469,-103.166" style="fill:#242e6b;fill-rule:nonzero;"/></g><g><path d="M1375.31,1438.5c-0,0 -153.328,162.3 -332.557,46.919c112.325,-152.375 332.557,-46.919 332.557,-46.919" style="fill:#242e6b;fill-rule:nonzero;"/></g><g><path d="M961.123,535.8c0,0 110.032,202.619 309.766,145.251c-72.819,-180.725 -309.766,-145.251 -309.766,-145.251" style="fill:#242e6b;fill-rule:nonzero;"/></g><g><path d="M974.668,695.684c0,-0 110.039,202.615 309.766,145.25c-72.813,-180.723 -309.766,-145.25 -309.766,-145.25" style="fill:#242e6b;fill-rule:nonzero;"/></g><g><path d="M981.556,832.899c-0,0 88.465,210.272 294.559,171.354c-53.55,-185.295 -294.559,-171.354 -294.559,-171.354" style="fill:#242e6b;fill-rule:nonzero;"/></g><g><path d="M945.307,974.069c-0,-0 71.604,214.738 281.206,190c-38.645,-187.571 -281.206,-190 -281.206,-190" style="fill:#242e6b;fill-rule:nonzero;"/></g><g><path d="M899.702,1113.21c0,-0 41.473,219.689 254.442,219.853c-12.333,-189.104 -254.442,-219.853 -254.442,-219.853" style="fill:#242e6b;fill-rule:nonzero;"/></g><g><path d="M833.831,1230.61c0,0 5.787,220.918 218.3,249.848c18.331,-187 -218.3,-249.848 -218.3,-249.848" style="fill:#242e6b;fill-rule:nonzero;"/></g></g><path d="M611.437,208.275c-9.739,-4.728 -25.439,-6.956 -46.894,-4.883c-21.455,2.074 -50.124,10.073 -71.976,20.214c-6.852,3.332 -9.12,6.507 -14.309,10.014c11.249,-28.265 34.362,-76.479 37.566,-77.208c7.34,-1.928 17.962,-6.782 27.202,-15.126c9.605,-8.021 18.234,-18.848 25.606,-29.168c12.759,-17.862 48.453,-59.481 34.678,-85.269c-1.666,-3.093 -4.265,-5.715 -7.714,-7.146c-36.561,-15.175 -67.417,37.201 -78.546,63.63c-7.527,17.631 -7.668,39.529 -16.575,56.588c-5.1,10.062 -26.442,44.945 -26.513,55.894c-0.104,-24.058 0.963,-52.261 1.876,-73.153c0.912,-20.891 0.533,-35.801 -1.993,-46.455c-2.525,-10.654 -7.155,-16.692 -13.971,-18.835c-6.492,-2.18 -13.75,0.468 -19.906,9.92c-24.057,37.016 -14.185,94.975 -0.071,135.312c4.393,12.63 10.204,23.275 14.957,30.394c1.137,1.329 -10.714,35.863 -17.268,53.384c-9.912,25.562 -29.53,81.402 -30.138,81.835c-2.075,-6.693 -4.84,-13.673 -7.404,-21.77c-7.242,-23.247 -12.521,-153.574 -56.671,-131.416c-47.879,24.04 3.248,126.911 24.974,153.253c9.137,10.997 18.879,18.643 26.306,23.269c2.111,1.219 3.856,2.115 5.56,2.651c-8.168,26.457 -16.578,53.671 -24.541,81.928c-8.246,28.654 -16.087,57.992 -24.21,87.726c-3.537,-7.986 -8.819,-16.868 -14.507,-26.434c-18.566,-30.348 -27.483,-65.44 -45.076,-95.899c-4.916,-8.559 -11.25,-15.133 -19.812,-18.172c-4.098,-1.358 -8.398,-1.598 -12.817,-0.002c-23.355,8.489 -19.945,52.959 -13.72,73.04c10.376,33.467 34.131,60.308 61.446,77.992c11.365,7.462 22.077,12.08 30.516,14.038c2.718,0.786 5.071,1.248 7.383,1.35c-8.93,34.202 -18.144,68.801 -27.277,104.121c-3.879,15.028 -7.758,30.057 -11.272,45.409c-1.333,5.622 -11.69,33.057 -9.211,37.517c-0.407,-0.683 -0.854,-1.727 -1.26,-2.41c-0.813,-1.366 -1.342,-3.13 -2.154,-4.496c-3.25,-5.466 -5.893,-11.366 -8.818,-16.868c-8.331,-15.465 -17.149,-32.334 -25.602,-48.879c-8.453,-16.545 -16.216,-32.803 -23.368,-46.578c-13.981,-27.588 -24.991,-46.395 -35.75,-57.207c-10.476,-11.21 -20.701,-14.424 -29.54,-11.232c-52.752,18.759 20.654,132.592 37.265,154.41c12.752,16.786 27.005,32.307 41.213,44.551c6.293,6.214 13.884,12.281 21.27,16.547c6.048,4.054 12.338,7.351 18.424,8.848c-8.32,36.686 -15.95,73.658 -22.606,110.519c-1.453,7.459 -2.541,15.242 -3.994,22.701c-4.264,-5.716 -8.894,-11.754 -13.565,-18.153c-9.666,-12.76 -20.145,-26.886 -29.609,-40.764c-9.789,-13.84 -18.564,-27.431 -26.16,-39.332c-15.153,-23.442 -27.093,-38.862 -38.621,-47.763c-9.336,-6.963 -20.697,-11.507 -31.361,-7.013c-4.703,1.993 -8.553,5.713 -11.265,10.762c-2.713,5.05 -4.531,12.186 -4.239,20.54c0.301,17.107 7.382,41.831 26.109,70.703c9.506,14.237 22.46,29.906 37.157,43.553c14.696,13.647 30.892,26.03 46.639,34.453c11.931,6.667 24.591,11.064 37.534,15.063c0.324,-0.036 0.689,0.287 1.338,0.213c-2.619,17.439 -4.59,34.803 -6.519,52.528c-3.167,38.653 -6.617,77.703 -7.43,116.819c-0.074,8.031 -0.188,15.703 -0.261,23.735c-0.366,-0.323 -0.731,-0.647 -1.096,-0.97c-2.558,-2.262 -5.115,-4.524 -7.714,-7.147c-17.824,-18.033 -36.782,-34.478 -53.756,-53.702c-11.694,-13.259 -22.091,-26.665 -30.945,-38.059c-17.748,-23.148 -30.419,-39.213 -41.704,-48.872c-9.012,-6.999 -19.28,-13.491 -30.227,-8.6c-29.07,13.15 -6.385,65.277 4.991,84.408c4.062,6.832 8.532,14.347 14.258,21.355c11.209,14.773 26.11,30.221 43.037,43.25c16.927,13.029 35.555,23.677 53.125,30.798c11.686,4.507 23.697,8.978 35.988,10.134c3.326,0.351 6.653,0.703 9.614,0.731c0.973,-0.111 1.987,0.139 2.961,0.028c-7.463,0.848 5.67,156.906 5.97,174.012c-1.055,-0.609 -1.827,-1.615 -2.557,-2.262c-2.193,-1.939 -4.75,-4.201 -7.267,-6.103c-1.42,-0.933 -2.517,-1.903 -3.978,-3.195c-7.307,-6.464 -14.533,-12.207 -21.84,-18.671c-24.115,-21.33 -47.788,-47.451 -66.067,-75.279c-14.46,-20.239 -40.105,-72.395 -69.219,-62.522c-4.744,1.634 -9.041,4.31 -12.078,9.396c-30.371,50.862 32.568,121.756 68.167,148.71c31.296,23.796 78.412,47.983 116.364,34.917c3.992,58.263 8.872,112.778 14.234,162.862c-10.432,-7.932 -23.541,-16.289 -38.071,-25.579c-17.696,-11.118 -37.502,-23.456 -56.902,-35.11c-27.274,-17.324 -53.738,-36.198 -77.976,-58.608c-7.713,-7.147 -13.965,-13.001 -18.756,-17.563c-2.882,-2.225 -5.115,-4.524 -7.997,-6.75c-2.841,-1.865 -5.034,-3.804 -7.834,-5.309c-5.276,-3.048 -10.713,-4.618 -15.904,-4.028c-5.516,0.626 -10.178,2.98 -14.107,8.897c-1.984,2.778 -3.846,6.637 -4.612,11.465c-0.807,4.468 -1.775,10.413 -1.079,16.534c0.499,13.072 4.936,28.979 14.362,45.414c9.427,16.434 23.477,33.073 41.865,47.394c9.053,7.36 19.321,13.852 30.198,19.91c10.835,5.698 22.32,11.322 33.965,15.469c22.317,8.405 45.768,15.223 66.986,19.741c24.22,4.906 45.435,6.507 59.711,4.885c4.01,35.285 8.098,68.373 12.266,99.263c12.666,94.112 25.233,170 36.202,228.929c10.968,58.929 20.379,101.259 27.464,128.9c7.409,27.605 12.127,40.198 15.006,39.506c2.879,-0.692 35.254,6.57 33.036,-21.624c-2.218,-28.195 -35.853,-121.747 -43.578,-181.045c-7.399,-59.334 -21.195,-105.542 -32.522,-199.442c-4.048,-32.727 -8.057,-68.012 -11.947,-105.134c2.149,-1.338 4.297,-2.677 6.405,-4.375c10.985,-7.448 24.156,-18.791 39.558,-30.753c15.036,-12.285 31.978,-25.151 48.596,-37.981c16.617,-12.829 32.951,-25.261 46.813,-36.318c27.681,-22.475 45.915,-41.323 55.228,-57.699c9.313,-16.375 9.746,-29.918 3.693,-39.807c-6.053,-9.888 -17.78,-14.756 -35.137,-11.324c-17.357,3.431 -41.075,14.514 -70.864,38.687c-34.612,28.003 -65.851,62.552 -89.256,102.411c-4.172,6.674 -7.653,13.634 -10.851,20.197c-3.893,-40.039 -7.747,-82.635 -11.198,-127.466c11.312,-4.568 28.456,-18.551 47.26,-35.276c27.436,-24.634 58.678,-56.266 81.206,-80.708c22.163,-24.765 35.691,-44.537 41.76,-60.544c6.068,-16.007 4.961,-28.646 -1.902,-36.984c-6.863,-8.337 -17.737,-11.478 -33.55,-6.034c-15.49,5.407 -35.553,19.722 -59.216,45.752c-23.662,26.029 -50.719,65.574 -68.693,101.168c-4.049,7.754 -7.448,15.435 -10.564,22.718c-1.111,-15.556 -1.979,-31.869 -2.805,-47.821c-1.657,-34.823 0.092,-71.492 -3.836,-106.057c-0.123,-1.08 0.12,-1.837 -0.003,-2.917c11.356,-1.29 28.588,-8.719 47.763,-19.286c29.067,-16.067 62.466,-40.286 85.079,-61.09c45.226,-41.609 52.253,-72.313 39.623,-88.019c-12.995,-16.029 -40.086,-11.491 -84.096,29.25c-22.005,20.371 -49.476,50.48 -70.744,77.332c-6.604,8.409 -12.558,16.744 -17.296,24.212c0.117,-4.755 8.521,-162.165 10.492,-179.53c10.87,0.223 25.956,-2.95 42.661,-9.224c14.516,-5.297 30.409,-12.938 44.84,-21.872c14.756,-8.97 28.374,-19.271 39.113,-28.879c21.438,-19.577 32.777,-38.371 36.697,-53.04c3.879,-15.029 0.948,-26.366 -6.523,-34.27c-7.471,-7.903 -17.979,-10.721 -30.712,-7.086c-12.733,3.635 -28.015,13.76 -47.061,31.241c-19.006,17.842 -43.44,42.865 -63.943,64.889c-2.917,3.249 13.308,-79.558 20.938,-116.53c10.262,0.657 20.116,-2.286 38.119,-8.708c27.816,-9.726 59.802,-26.125 82.056,-41.418c22.253,-15.293 35.34,-30.274 41.452,-43.004c6.071,-13.089 5.493,-23.965 0.211,-32.847c-5.606,-8.845 -14.655,-13.287 -27.675,-12.172c-13.019,1.115 -29.926,8.506 -51.571,23.366c-21.321,14.822 -48.596,37.98 -69.505,59.32c-3.525,3.683 40.544,-184.039 41.433,-187.787c7.424,1.71 13.267,3.963 25.556,2.202c19.993,-3.366 43.228,-10.018 59.811,-17.373c32.84,-14.672 41.542,-33.532 35.685,-50.372c-5.857,-16.839 -24.564,-25.29 -58.662,-10.11c-16.907,7.392 -38.309,21.494 -54.114,35.69c-1.5,1.265 31.565,-115.549 39.812,-144.204c5.679,0.814 6.939,3.224 13.875,3.53c21.782,0.807 48.347,-2.577 67.122,-7.992c19.099,-5.453 31.422,-12.689 38.066,-20.737c6.969,-8.086 8.665,-16.302 6.142,-24.039c-2.198,-7.774 -8.125,-13.665 -17.619,-16.233c-9.494,-2.568 -23.203,-1.74 -41.37,3.242c-17.842,4.945 -35.52,11.331 -54.494,20.781c6.51,-20.799 28.072,-79.777 32.36,-91.205c7.831,2.392 16.307,1.794 31.396,1.538c22.633,-0.384 49.726,-2.004 69.559,-3.893c19.792,-2.249 33.863,-5.671 42.782,-11.061c8.959,-5.03 13.089,-12.064 12.92,-19.338c0.763,-7.746 -3.624,-14.541 -13.364,-19.27Z" style="fill:#638739;fill-rule:nonzero;"/><g><g><path d="M1453.83,844.557c77.99,120.984 133.922,255.568 163.522,396.366c31.799,151.244 32.498,307.18 2.394,454.569c-17.545,85.912 -45.213,168.638 -82.307,246.004c-4.15,8.661 -17.634,1.623 -13.453,-7.084c126.1,-262.603 136.856,-581.527 30.75,-869.201c-27.9,-75.641 -63.399,-148.756 -105.997,-217.025c-2.312,-3.698 2.713,-7.316 5.091,-3.629" style="fill:#182047;fill-rule:nonzero;"/></g><g><path d="M1326.23,582.985c0,-0 183.217,99.37 129.677,274.526c-163.598,-66.326 -129.677,-274.526 -129.677,-274.526" style="fill:#182047;fill-rule:nonzero;"/></g><g><path d="M1628.33,662.369c-0,-0 33.14,212.233 -136.899,252.173c-47.185,-178.324 136.899,-252.173 136.899,-252.173" style="fill:#182047;fill-rule:nonzero;"/></g><g><path d="M1694.97,802.328c0,0 33.141,212.233 -136.898,252.173c-47.186,-178.324 136.898,-252.173 136.898,-252.173" style="fill:#182047;fill-rule:nonzero;"/></g><g><path d="M1744.56,959.524c0,-0 33.14,212.233 -136.898,252.172c-47.186,-178.324 136.898,-252.172 136.898,-252.172" style="fill:#182047;fill-rule:nonzero;"/></g><g><path d="M1797.48,1139.74c0,-0 10.744,213.318 -163.676,232.405c-28.383,-181.538 163.676,-232.405 163.676,-232.405" style="fill:#182047;fill-rule:nonzero;"/></g><g><path d="M1829.75,1348.71c-0,0 -19.454,210.555 -196.283,201.358c-2.653,-182.271 196.283,-201.358 196.283,-201.358" style="fill:#182047;fill-rule:nonzero;"/></g><g><path d="M1836.1,1567.69c0,-0 -56.221,200.511 -230.479,156.584c29.278,-177.441 230.479,-156.584 230.479,-156.584" style="fill:#182047;fill-rule:nonzero;"/></g><g><path d="M1207.13,885.931c-0,0 153.862,147.186 281.904,26.519c-118.411,-139.947 -281.904,-26.519 -281.904,-26.519" style="fill:#182047;fill-rule:nonzero;"/></g><g><path d="M1274.08,1027.15c-0,-0 153.861,147.185 281.9,26.52c-118.412,-139.947 -281.9,-26.52 -281.9,-26.52" style="fill:#182047;fill-rule:nonzero;"/></g><g><path d="M1328.01,1149.96c0,-0 140.563,161.55 279.89,55.531c-105.713,-150.706 -279.89,-55.531 -279.89,-55.531" style="fill:#182047;fill-rule:nonzero;"/></g><g><path d="M1351.29,1291.14c0,0 129.608,171.398 276.597,77.122c-95.45,-157.891 -276.597,-77.122 -276.597,-77.122" style="fill:#182047;fill-rule:nonzero;"/></g><g><path d="M1366.89,1433.67c0,-0 108.978,186.222 267.322,113.505c-76.436,-168.29 -267.322,-113.505 -267.322,-113.505" style="fill:#182047;fill-rule:nonzero;"/></g><g><path d="M1359.7,1563.31c0,0 82.896,199.543 251.141,153.234c-52.907,-176.868 -251.141,-153.234 -251.141,-153.234" style="fill:#182047;fill-rule:nonzero;"/></g></g><g><g><path d="M2351.51,378.526c132.541,132.644 237.895,289.985 308.624,463.758c75.989,186.675 110.514,389.325 101.14,590.63c-5.468,117.336 -25.43,233.749 -59.43,346.182c-3.804,12.582 -23.735,7.708 -19.9,-4.947c115.659,-381.673 61.679,-800.009 -145.143,-1140.59c-54.382,-89.553 -118.597,-173.402 -191.464,-248.702c-3.945,-4.078 2.135,-10.38 6.173,-6.333" style="fill:#182047;fill-rule:nonzero;"/></g><g><path d="M2120.96,78.73c0,0 271.574,71.116 236.174,315.993c-237.671,-34.356 -236.174,-315.993 -236.174,-315.993" style="fill:#182047;fill-rule:nonzero;"/></g><g><path d="M2550.57,86.104c-0,0 90.946,265.597 -132.644,371.531c-102.825,-217.018 132.644,-371.531 132.644,-371.531" style="fill:#182047;fill-rule:nonzero;"/></g><g><path d="M2671.7,247.033c0,-0 90.946,265.597 -132.644,371.531c-102.825,-217.018 132.644,-371.531 132.644,-371.531" style="fill:#182047;fill-rule:nonzero;"/></g><g><path d="M2773.26,435.81c0,0 90.94,265.595 -132.643,371.532c-102.832,-217.02 132.643,-371.532 132.643,-371.532" style="fill:#182047;fill-rule:nonzero;"/></g><g><path d="M2884.32,653.462c0,0 60.595,274.111 -173.469,354.32c-77.839,-227.182 173.469,-354.32 173.469,-354.32" style="fill:#182047;fill-rule:nonzero;"/></g><g><path d="M2973.38,915.084c-0,-0 18.77,280.107 -224.677,324.271c-42.868,-236.288 224.677,-324.271 224.677,-324.271" style="fill:#182047;fill-rule:nonzero;"/></g><g><path d="M3029.2,1197.96c-0,-0 -33.593,278.712 -281.012,276.881c1.78,-240.132 281.012,-276.881 281.012,-276.881" style="fill:#182047;fill-rule:nonzero;"/></g><g><path d="M2023.55,510.669c-0,0 241.791,142.65 390.652,-54.985c-191.815,-144.477 -390.652,54.985 -390.652,54.985" style="fill:#182047;fill-rule:nonzero;"/></g><g><path d="M2145.36,673.136c0,-0 241.793,142.644 390.654,-54.992c-191.815,-144.477 -390.654,54.992 -390.654,54.992" style="fill:#182047;fill-rule:nonzero;"/></g><g><path d="M2245.46,815.801c-0,-0 226.709,165.557 394.148,-16.606c-176.801,-162.509 -394.148,16.606 -394.148,16.606" style="fill:#182047;fill-rule:nonzero;"/></g><g><path d="M2307.64,992.084c-0,-0 213.889,181.831 394.305,12.521c-164.339,-175.112 -394.305,-12.521 -394.305,-12.521" style="fill:#182047;fill-rule:nonzero;"/></g><g><path d="M2359.63,1172.56c-0,-0 188.895,207.672 389.471,62.806c-140.609,-194.678 -389.471,-62.806 -389.471,-62.806" style="fill:#182047;fill-rule:nonzero;"/></g><g><path d="M2377.72,1343.5c0,-0 156.153,233.298 375.922,119.632c-110.314,-213.305 -375.922,-119.632 -375.922,-119.632" style="fill:#182047;fill-rule:nonzero;"/></g></g></g></svg>