<?xml version="1.0" encoding="UTF-8" standalone="no"?><!DOCTYPE svg PUBLIC "-//W3C//DTD SVG 1.1//EN" "http://www.w3.org/Graphics/SVG/1.1/DTD/svg11.dtd"><svg width="100%" height="100%" viewBox="0 0 8734 8146" version="1.1" xmlns="http://www.w3.org/2000/svg" xmlns:xlink="http://www.w3.org/1999/xlink" xml:space="preserve" xmlns:serif="http://www.serif.com/" style="fill-rule:evenodd;clip-rule:evenodd;stroke-linejoin:round;stroke-miterlimit:2;"><g><g><g><g><path d="M4576.69,4577.77c87.377,-45.618 167.85,-101.41 239.815,-165.764c-37.35,65.07 -84.344,125.081 -140.045,169.055c-33.266,1.105 -66.613,0.018 -99.77,-3.291m-1420.05,-728.185c7.901,3.894 16.445,6.343 25.134,7.448c31.826,265.968 109.967,540.96 330.159,712.451c123.731,96.361 261.703,130.147 402.019,123.826c26.787,9.622 55.031,16.848 84.888,21.29c86.363,12.845 186.681,3.26 271.487,-33.891c3.7,0.145 7.394,0.417 11.08,0.471l3.088,4.854c3.287,5.189 7.914,8.25 13.099,9.776c2.816,2.49 6.542,4.346 11.496,4.998c36.087,4.741 68.338,-1.987 96.927,-16.164c98.493,23.513 190.15,-2.499 268.449,-55.651c105.906,-3.546 211.1,-28.381 307.873,-74.65c199.359,-95.306 319.147,-276.5 435.059,-456.186c14.163,7.575 30.97,10.273 48.135,6.846c8.082,-1.63 14.435,-12.968 11.116,-20.692c-8.159,-19.026 -26.764,-34.516 -47.248,-37.807c-11.654,-7.575 -24.4,-12.782 -37.789,-11.324c-7.041,0.778 -11.215,7.624 -7.638,14.086c0.136,0.253 0.348,0.484 0.489,0.756c-1.096,3.119 -1.286,6.551 0.022,10.115c3.514,9.463 8.834,17.541 15.246,24.355c-113.268,165.519 -239.852,332.853 -424.197,422.884c-74.777,36.521 -154.856,59.3 -236.352,68.877c67.836,-65.078 121.35,-149.644 154.466,-233.481c1.386,-3.523 2.595,-7.109 3.944,-10.622c221.324,-239.993 339.518,-567.706 299.85,-907.066c8.593,-1.766 16.811,-4.5 23.015,-6.859c5.102,-1.956 8.258,-5.511 9.793,-9.572c8.014,-8.811 4.999,-24.364 -7.004,-26.841c-1.961,-2.459 -4.958,-4.202 -9.282,-4.138c-23.079,0.289 -46.256,0.054 -69.357,1.041c-16.835,0.702 -20.937,27.475 -3.378,30.3c2.762,0.453 5.556,0.743 8.34,1.132c0.362,6.855 4.17,13.42 11.908,14.838c4.41,0.797 8.78,1.213 13.126,1.421c20.941,296.635 -69.121,584.233 -243.338,808.654c73.727,-240.477 88.478,-502.374 65.98,-750.919c2.49,0.144 4.998,0.208 7.489,0.23c0.81,0.521 1.634,0.883 2.426,1.467c7.29,5.244 15.028,2.554 19.959,-3.06c6.461,-0.996 12.859,-2.463 19.116,-4.442c15.771,-5.012 13,-24.803 -0.679,-29.961c-17.672,-6.66 -38.128,-7.611 -56.896,-4.007c-0.494,-0.004 -1.001,0.014 -1.522,-0.004c-3.3,-1.241 -6.968,-0.983 -9.879,0.597c-3.849,0.512 -7.697,1.218 -11.519,2.332c-15.861,4.646 -15.136,28.181 0.743,32.152c2.721,0.707 5.478,1.263 8.231,1.816c20.267,257.361 -7.946,518.846 -85.784,765.299c-6.959,22.024 -15.123,44.5 -24.377,67.03c-96.28,103.343 -212.463,189.462 -345.115,251.859c4.755,-8.621 9.287,-17.327 13.439,-26.12c24.676,-52.36 44.576,-107.477 60.926,-163.758c50.54,-75.859 92.118,-157.201 125.153,-242.392c98.1,-253.023 109.89,-527.924 87.401,-795.807c7.964,-0.032 16.232,-1.386 21.873,-5.76c12.574,-4.682 18.524,-21.901 3.555,-30.114c-1.544,-0.851 -3.124,-1.571 -4.705,-2.346c-5.442,-5.062 -12.754,-8.127 -19.877,-7.484c-14.769,-3.957 -30.327,-5.008 -45.522,-3.151c-12.954,1.584 -23.124,18.419 -11.053,28.511c0.498,0.399 1.01,0.716 1.504,1.096c1.693,3.269 4.654,6.054 9.236,7.353c0.689,0.181 1.404,0.258 2.069,0.43c5.859,3.473 12.022,6.316 18.578,8.214c16.355,237.836 1.019,478.779 -73.735,706.569c-21.802,66.436 -48.833,131.18 -81.152,193.165c5.682,-30.83 10.572,-61.673 14.52,-92.363c37.011,-286.343 4.623,-574.162 -26.958,-859.405c13.814,-1.037 25.347,-5.506 29.204,-16.613c15.644,-3.097 22.245,-28.547 2.921,-31.4c-6.04,-0.91 -12.067,-1.453 -18.098,-1.811c-0.534,-0.272 -1.037,-0.611 -1.571,-0.883c-10.858,-5.094 -20.996,-1.865 -31.237,1.748c-8.961,1.086 -17.781,2.943 -26.493,5.555c-5.284,0.023 -10.572,0.086 -15.879,0.014c-15.756,-0.217 -18.55,17.509 -10.101,26.461c1.87,4.301 5.343,7.896 9.929,8.956c7.181,1.666 19.628,4.677 33.04,6.583c23.037,242.143 41.447,486.115 22.87,729.217c-9.337,121.952 -29.427,243.823 -64.943,361.034c-27.447,40.995 -62.656,90.013 -102.278,128.251c0.688,-2.717 1.412,-5.506 2.01,-7.997c24.713,-103.972 24.133,-214.754 21.09,-320.89c-7.081,-248.337 -60.527,-490.864 -147.203,-723.082c2.282,-0.544 4.55,-1.119 6.787,-1.866c15.155,0.761 30.445,-1.104 45.971,-6.08c16.268,-5.189 13.579,-25.795 -0.734,-31.093c-6.393,-2.382 -12.999,-3.849 -19.718,-4.65c-2.998,-2.694 -7.059,-4.428 -12.262,-4.333c-3.409,0.081 -6.823,0.14 -10.237,0.199c-20.991,-6.547 -49.226,0.869 -68.519,5.067c-16.142,3.531 -16.857,26.818 -3.663,34.135c10.355,5.764 21.529,9.205 32.858,10.491c71.535,204.082 112.027,417.627 125.461,633.391c6.176,98.842 7.865,198.961 -0.896,297.685c-3.989,45.228 -11.247,90.611 -25.021,133.982c-19.583,1.39 -38.16,0.594 -56.018,-1.784c-30.889,-80.789 -64.449,-160.895 -88.288,-244.316c-36.548,-127.811 -63.62,-258.506 -80.002,-390.451c-29.168,-234.717 -55.035,-512.276 84.217,-718.147c12.103,6.136 25.737,9.731 37.056,10.6c16.35,1.263 20.801,-20.131 11.659,-30.115c-21.874,-23.92 -51.934,-40.732 -84.33,-44.39c-19.502,-2.21 -28.172,19.646 -12.343,31.251c8.1,5.945 16.4,11.451 24.835,16.694c-144.297,204.24 -136.867,475.203 -110.547,713.438c15.463,140.018 42.281,278.822 80.464,414.421c20.276,71.924 42.014,148.929 69.95,222.728c-51.381,-21.938 -94.771,-59.763 -132.348,-105.797c-59.989,-100.853 -103.365,-211.159 -133.081,-324.549c-73.273,-279.389 -66.69,-571.002 -54.596,-857.205c0.466,-0.027 0.914,-0.104 1.394,-0.154c12.171,0.435 24.505,-0.647 37.128,-3.432c17.342,-3.817 13.199,-26.977 -0.738,-31.758c-30.984,-10.69 -64.195,-12.619 -96.08,-4.759c-12.605,3.097 -15.897,24.016 -3.138,29.277c11.741,4.827 23.857,8.236 36.123,9.943c-16.309,278.379 -34.887,564.278 27.416,838.188c-94.681,-205.295 -170.037,-420.561 -184.11,-647.554c5.126,-0.584 10.256,-1.367 15.363,-2.404c11.696,-2.4 13.421,-17.948 6.077,-25.423c-27.416,-27.96 -74.904,-26.248 -101.07,2.517c-9.436,10.351 -1.467,24.563 11.306,25.6c13.13,1.064 26.22,1.472 39.297,1.132c11.518,257.85 91.099,503.493 202.913,734.751c37.817,78.208 88.057,190.969 155.789,281.869c5.99,10.002 11.953,19.995 18.233,29.789c29.961,46.677 63.874,90.941 101.138,132.08c-27.23,10.623 -54.755,20.362 -82.465,28.956c-19.986,-6.932 -39.487,-15.182 -58.355,-24.79c-110.736,-56.362 -181.596,-155.852 -236.632,-264.22c-119.271,-234.935 -166.465,-499.92 -133.113,-761.066c3.853,-0.494 7.702,-1.259 11.442,-2.445c1.96,-0.621 3.758,-1.843 5.392,-3.274c0.485,-0.027 1.069,0.009 1.535,-0.013c14.892,-0.915 22.508,-22.925 7.385,-30.029c-7.348,-3.45 -14.874,-6.294 -22.471,-8.739c-3.912,-2.019 -8.191,-3.232 -12.633,-3.486c-15.272,-3.744 -30.948,-5.687 -47.089,-5.239c-14.444,0.385 -18.777,16.948 -10.387,26.809c9.834,11.546 23.454,19.923 38.179,24.048c-37.672,280.588 5.505,573.542 140.452,823.934c56.716,105.231 134.617,195.244 241.582,248.636c-44.608,10.206 -89.393,17.052 -133.951,19.623c-124.103,-48.08 -204.558,-154.099 -270.822,-271.161c-155.358,-274.544 -279.443,-588.353 -240.377,-908.478c8.748,0.14 17.428,-0.629 25.356,-2.069c1.399,0.122 2.784,0.326 4.174,0.435c3.577,0.262 6.552,-1.16 8.816,-3.374c0.127,-0.04 0.294,-0.072 0.421,-0.108c12.701,-3.817 13.022,-20.077 2.862,-26.769c-26.316,-17.405 -58.966,-21.249 -88.786,-11.156c-13.475,4.582 -12.868,23.422 0.647,27.407c0.652,0.194 1.286,0.335 1.956,0.525c4.524,4.514 10.002,7.905 16.291,10.26c-47.17,348.714 80.7,708.525 264.95,1001.04c45.771,72.69 101.269,135.472 168.407,180.995c-99.426,-10.794 -195.742,-46.895 -283.78,-118.683c-200.696,-163.635 -284.451,-420.448 -318.817,-668.767c14.742,-3.789 28.335,-11.704 38.101,-24.332c5.416,-6.986 6.19,-19.519 -3.631,-23.807c-28.362,-12.379 -59.645,-7.58 -83.212,12.551c-0.14,0.122 -0.167,0.29 -0.308,0.407c-13.552,2.975 -21.362,22.3 -6.126,29.762" style="fill:#0a6418;fill-rule:nonzero;"/></g><g><path d="M3924.62,4507.64c-53.885,-46.188 -98.426,-108.052 -133.131,-174.583c69.343,67.197 147.484,126.217 232.947,175.312c-33.28,1.956 -66.605,1.716 -99.816,-0.729m1543.17,-699.547c-0.118,-0.122 -0.149,-0.29 -0.29,-0.421c-22.756,-21.063 -53.799,-27.117 -82.637,-15.883c-9.979,3.884 -9.703,16.431 -4.595,23.626c9.263,13.026 22.525,21.466 37.091,25.844c-44.34,246.739 -138.401,499.939 -345.53,655.369c-90.846,68.166 -188.584,100.346 -288.34,107.137c68.899,-42.756 126.91,-103.261 175.588,-174.053c195.882,-284.858 338.16,-639.196 305.107,-989.54c6.357,-2.11 11.998,-5.279 16.689,-9.599c0.661,-0.163 1.322,-0.267 1.974,-0.448c13.67,-3.441 15.042,-22.249 1.757,-27.352c-29.39,-11.293 -62.162,-8.766 -89.166,7.548c-10.423,6.293 -10.745,22.553 1.784,26.863c0.136,0.054 0.285,0.086 0.412,0.127c2.191,2.309 5.094,3.867 8.666,3.735c1.404,-0.054 2.798,-0.203 4.184,-0.253c7.896,1.743 16.508,2.87 25.274,3.083c26.121,321.429 -110.533,630 -276.867,898.023c-70.932,114.314 -155.58,216.991 -281.521,260.028c-44.417,-4.378 -88.899,-13.018 -133.049,-25.012c109.029,-49.022 190.489,-135.82 251.402,-238.679c144.958,-244.737 199.907,-535.712 173.601,-817.6c14.878,-3.536 28.819,-11.36 39.102,-22.485c8.797,-9.526 5.134,-26.243 -9.296,-27.226c-16.078,-1.086 -31.835,0.231 -47.261,3.342c-4.428,0.099 -8.752,1.127 -12.741,2.979c-7.707,2.151 -15.327,4.664 -22.821,7.829c-15.399,6.475 -8.657,28.778 6.172,30.291c0.484,0.031 1.037,0.036 1.526,0.086c1.584,1.503 3.323,2.789 5.252,3.482c3.708,1.349 7.516,2.25 11.369,2.907c22.784,262.287 -35.081,525.149 -163.743,755.08c-59.36,106.05 -134.182,202.597 -247.101,254.449c-19.23,8.838 -39.084,16.305 -59.31,22.408c-27.325,-9.698 -54.424,-20.529 -81.229,-32.26c38.894,-39.592 74.573,-82.438 106.381,-127.87c6.665,-9.54 13.049,-19.293 19.433,-29.046c71.341,-88.075 126.109,-198.739 167.049,-275.345c121.029,-226.563 210.48,-468.783 232.381,-725.967c13.049,0.851 26.13,0.983 39.329,0.453c12.786,-0.512 21.317,-14.394 12.302,-25.125c-24.98,-29.793 -72.346,-33.424 -100.88,-6.583c-7.629,7.158 -6.551,22.77 5.062,25.641c5.044,1.258 10.138,2.241 15.25,3.02c-23.237,226.236 -107.214,438.305 -210.081,639.607c73.296,-271.166 66.255,-557.6 61.198,-836.413c12.315,-1.209 24.567,-4.12 36.494,-8.467c12.976,-4.727 10.504,-25.777 -1.943,-29.376c-31.554,-9.133 -64.806,-8.567 -96.216,0.846c-14.108,4.247 -19.166,27.208 -2.01,31.736c12.515,3.287 24.776,4.858 36.988,4.921c0.434,0.064 0.896,0.159 1.349,0.218c0.539,286.452 -4.646,578.074 -89.121,854.289c-34.28,112.095 -82.067,220.558 -146.054,318.912c-39.437,44.494 -84.294,80.522 -136.536,100.372c30.898,-72.599 55.724,-148.666 78.87,-219.716c43.621,-133.942 76.031,-271.574 97.144,-410.845c35.911,-236.972 54.271,-507.418 -81.677,-717.309c8.621,-4.908 17.143,-10.07 25.483,-15.684c16.295,-10.958 8.503,-33.153 -11.089,-31.727c-32.491,2.346 -63.213,17.926 -86.051,40.95c-9.522,9.608 -5.936,31.16 10.455,30.558c11.342,-0.399 25.111,-3.437 37.449,-9.096c130.841,211.317 93.789,487.631 55.19,720.967c-21.72,131.175 -54.04,260.666 -95.704,386.902c-27.19,82.397 -63.956,161.076 -98.073,240.562c-17.944,1.653 -36.539,1.694 -56.031,-0.48l-0.019,0.005c-12.016,-43.893 -17.427,-89.533 -19.609,-134.879c-4.746,-99.005 0.987,-198.975 11.133,-297.491c22.128,-215.066 71.227,-426.778 150.926,-627.826c11.369,-0.82 22.675,-3.794 33.252,-9.128c13.466,-6.792 13.679,-30.105 -2.277,-34.267c-19.126,-4.971 -47.044,-13.52 -68.284,-7.815c-3.414,-0.194 -6.819,-0.416 -10.215,-0.615c-5.189,-0.326 -9.323,1.258 -12.424,3.808c-6.738,0.566 -13.412,1.765 -19.891,3.871c-14.498,4.718 -18.025,25.197 -1.988,31.033c15.309,5.588 30.513,8.069 45.686,7.938c2.209,0.824 4.446,1.498 6.719,2.141c-95.98,228.533 -159.166,468.701 -176.272,716.54c-7.303,105.932 -12.365,216.588 8.118,321.483c0.517,2.527 1.123,5.339 1.685,8.069c-38.016,-39.809 -71.232,-90.203 -97,-132.285c-30.78,-118.529 -45.93,-241.124 -50.317,-363.343c-8.78,-243.655 19.488,-486.685 52.26,-727.709c13.497,-1.354 26.03,-3.858 33.284,-5.234c4.605,-0.879 8.222,-4.334 10.282,-8.558c8.807,-8.598 6.715,-26.429 -9.019,-26.832c-5.316,-0.167 -10.586,-0.425 -15.888,-0.656c-8.585,-2.971 -17.332,-5.18 -26.243,-6.634c-10.075,-4.016 -20.063,-7.638 -31.111,-2.992c-0.561,0.23 -1.073,0.547 -1.625,0.815c-6.04,0.117 -12.071,0.407 -18.143,1.064c-19.447,2.096 -13.855,27.791 1.63,31.509c3.414,11.265 14.747,16.177 28.516,17.776c-43.055,283.74 -87.034,570.01 -61.619,857.617c2.721,30.816 6.357,61.85 10.776,92.874c-29.77,-63.253 -54.18,-129.015 -73.287,-196.285c-65.481,-230.61 -71.082,-472.001 -45.156,-708.969c6.62,-1.634 12.909,-4.233 18.89,-7.448c0.684,-0.15 1.399,-0.195 2.06,-0.358c4.646,-1.127 7.725,-3.767 9.568,-6.959c0.475,-0.38 1.037,-0.67 1.516,-1.037c12.484,-9.608 2.984,-26.823 -9.879,-28.937c-15.11,-2.49 -30.708,-2.069 -45.618,1.299c-7.095,-0.941 -14.516,1.825 -20.149,6.692c-1.621,0.693 -3.219,1.341 -4.79,2.138c-15.286,7.611 -10.061,25.047 2.305,30.236c5.492,4.591 13.687,6.28 21.633,6.647c-33.27,266.747 -32.586,541.907 55.222,798.683c29.571,86.459 67.831,169.408 115.291,247.223c14.041,56.928 31.718,112.774 54.266,166.107c3.79,8.943 7.951,17.826 12.352,26.642c-130.025,-67.718 -242.636,-158.451 -334.664,-265.583c-8.318,-22.884 -15.585,-45.677 -21.652,-67.967c-67.84,-249.383 -85.476,-511.806 -54.832,-768.139c2.785,-0.439 5.547,-0.892 8.286,-1.476c16.028,-3.337 17.708,-26.822 2.038,-32.102c-3.763,-1.272 -7.562,-2.137 -11.406,-2.775c-2.834,-1.716 -6.493,-2.115 -9.843,-1.01c-0.517,-0.018 -1.001,-0.045 -1.531,-0.041c-18.609,-4.378 -39.07,-4.242 -57,1.694c-13.865,4.604 -17.423,24.264 -1.884,29.897c6.176,2.25 12.501,3.961 18.926,5.229c4.682,5.805 12.307,8.793 19.805,3.831c0.842,-0.534 1.666,-0.865 2.504,-1.359c2.49,0.086 4.98,0.15 7.484,0.091c-32.519,247.44 -28.33,509.705 35.639,752.952c-165.039,-231.258 -243.425,-522.237 -210.539,-817.795c4.369,-0.04 8.734,-0.271 13.199,-0.91c7.769,-1.1 11.844,-7.502 12.496,-14.33c2.794,-0.286 5.583,-0.449 8.377,-0.793c17.645,-2.114 14.62,-29.032 -2.16,-30.418c-23.042,-1.91 -46.211,-2.621 -69.276,-3.839c-4.292,-0.222 -7.366,1.39 -9.408,3.753c-12.112,1.997 -15.771,17.423 -8.119,26.542c1.404,4.13 4.406,7.806 9.427,9.957c6.09,2.613 14.19,5.673 22.707,7.779c-53.333,337.485 51.545,669.695 262.984,918.434c1.218,3.573 2.291,7.213 3.541,10.777c29.694,85.118 79.758,171.748 144.917,239.521c-81.038,-12.864 -160.144,-38.849 -233.39,-78.349c-180.547,-97.412 -300.266,-269.695 -406.77,-439.673c6.674,-6.548 12.298,-14.408 16.192,-23.713c1.453,-3.504 1.399,-6.959 0.448,-10.119c0.163,-0.249 0.371,-0.471 0.525,-0.734c3.831,-6.307 -0.077,-13.316 -7.086,-14.367c-13.302,-1.996 -26.252,2.685 -38.223,9.79c-20.593,2.463 -39.795,17.192 -48.72,35.851c-3.631,7.588 2.26,19.202 10.274,21.145c17.011,4.115 33.904,2.073 48.384,-4.89c108.541,184.214 220.944,370.085 416.291,473.355c94.817,50.136 198.921,79.21 304.613,86.997c76.081,56.295 166.597,85.961 265.968,66.446c28.023,15.322 59.944,23.354 96.212,20.067c4.958,-0.434 8.752,-2.151 11.677,-4.528c5.239,-1.308 10.002,-4.192 13.488,-9.227l3.283,-4.736c3.681,0.095 7.389,-0.037 11.102,-0.028c83.212,40.547 183.082,54.189 269.894,44.817c29.988,-3.238 58.495,-9.314 85.675,-17.844c139.923,11.971 279.158,-16.219 406.679,-107.513c226.943,-162.444 316.1,-434.077 358.639,-698.533c8.725,-0.765 17.35,-2.875 25.419,-6.434c15.526,-6.832 8.499,-26.465 -4.931,-29.983" style="fill:#22a356;fill-rule:nonzero;"/></g></g><g><path d="M5356.88,7837.43c-204.765,-76.705 -363.768,-258.175 -497.103,-424.916c-134.802,-168.566 -248.382,-354.098 -339.283,-549.776c-194.46,-418.483 -288.652,-875.303 -296.598,-1335.82c-3.917,-227.07 13.094,-453.669 46.55,-678.049c45.907,-1.901 109.514,-53.351 134.078,-74.736c29.847,-25.962 83.329,-93.449 71.77,-140.543c-0.634,-10.242 -5.995,-20.262 -15.979,-25.863c-5.574,-4.328 -11.894,-5.764 -18.102,-4.709c-69.697,33.524 -305.528,-14.176 -355.755,-48.307c-4.034,-2.73 -10.241,2.056 -14.049,5.474c-4.216,1.761 -7.711,5.162 -8.843,9.893c-21.847,90.226 48.325,226.536 135.236,272.896c-129.744,895.832 11.275,1848.05 586.103,2572.54c146.837,185.038 323.172,383.198 552.153,462.878c27.212,9.454 47.465,-30.617 19.822,-40.968" style="fill:#182047;fill-rule:nonzero;"/></g></g><g><path d="M7828.02,4759.75c87.405,-45.563 167.905,-101.309 239.938,-165.627c-37.413,65.051 -84.444,125.045 -140.172,168.982c-33.279,1.078 -66.6,-0.036 -99.766,-3.355m-1419.6,-729.072c7.924,3.903 16.45,6.357 25.13,7.471c31.676,265.986 109.632,541.032 329.719,712.659c123.664,96.442 261.631,130.306 401.939,124.08c26.786,9.622 55.049,16.866 84.855,21.317c86.35,12.922 186.718,3.396 271.538,-33.714c3.681,0.154 7.375,0.434 11.075,0.489l3.092,4.849c3.283,5.189 7.906,8.263 13.095,9.794c2.829,2.49 6.547,4.356 11.491,4.998c36.087,4.773 68.329,-1.942 96.932,-16.109c98.479,23.58 190.149,-2.359 268.481,-55.489c105.91,-3.468 211.109,-28.24 307.909,-74.46c199.414,-95.161 319.342,-276.291 435.349,-455.914c14.167,7.584 30.979,10.301 48.126,6.887c8.095,-1.621 14.471,-12.963 11.152,-20.697c-8.173,-19.035 -26.737,-34.524 -47.225,-37.825c-11.659,-7.602 -24.41,-12.809 -37.785,-11.338c-7.059,0.752 -11.229,7.584 -7.661,14.055c0.131,0.262 0.34,0.507 0.489,0.751c-1.091,3.115 -1.281,6.566 0.041,10.134c3.486,9.449 8.806,17.545 15.222,24.355c-113.385,165.473 -240.087,332.699 -424.464,422.634c-74.804,36.467 -154.887,59.183 -236.424,68.728c67.895,-65.051 121.477,-149.567 154.643,-233.39c1.376,-3.509 2.585,-7.095 3.962,-10.623c221.446,-239.86 339.848,-567.484 300.379,-906.879c8.603,-1.757 16.83,-4.492 23.02,-6.833c5.111,-1.96 8.263,-5.505 9.829,-9.581c7.997,-8.793 4.981,-24.359 -7.018,-26.827c-1.947,-2.472 -4.944,-4.211 -9.264,-4.152c-23.091,0.263 -46.278,0.036 -69.352,0.983c-16.848,0.697 -20.977,27.465 -3.414,30.313c2.771,0.453 5.565,0.738 8.318,1.132c0.38,6.851 4.188,13.416 11.926,14.852c4.414,0.81 8.77,1.222 13.13,1.43c20.751,296.649 -69.483,584.183 -243.84,808.5c73.876,-240.427 88.799,-502.325 66.423,-750.865c2.513,0.136 5.003,0.19 7.511,0.208c0.811,0.53 1.621,0.888 2.432,1.472c7.285,5.266 15.019,2.567 19.94,-3.038c6.475,-0.997 12.868,-2.45 19.13,-4.433c15.775,-4.999 13,-24.808 -0.656,-29.956c-17.681,-6.679 -38.129,-7.643 -56.901,-4.039c-0.489,-0.018 -1.019,0 -1.508,0c-3.323,-1.245 -6.964,-1.001 -9.889,0.584c-3.866,0.489 -7.697,1.191 -11.527,2.3c-15.866,4.641 -15.146,28.168 0.738,32.17c2.716,0.698 5.451,1.264 8.227,1.83c20.108,257.365 -8.264,518.846 -86.255,765.236c-6.982,22.018 -15.168,44.485 -24.414,67.011c-96.366,103.293 -212.581,189.322 -345.282,251.651c4.772,-8.621 9.3,-17.337 13.448,-26.107c24.717,-52.355 44.658,-107.44 61.012,-163.739c50.621,-75.8 92.236,-157.133 125.33,-242.292c98.271,-252.974 110.193,-527.871 87.894,-795.745c7.959,-0.041 16.205,-1.394 21.882,-5.773c12.547,-4.659 18.51,-21.887 3.55,-30.11c-1.548,-0.851 -3.133,-1.566 -4.718,-2.341c-5.415,-5.075 -12.714,-8.15 -19.827,-7.489c-14.774,-3.98 -30.336,-5.039 -45.523,-3.187c-12.981,1.585 -23.15,18.41 -11.075,28.525c0.471,0.394 0.978,0.697 1.472,1.073c1.716,3.283 4.677,6.058 9.264,7.358c0.656,0.19 1.376,0.267 2.037,0.435c5.864,3.472 12.035,6.32 18.601,8.227c16.187,237.841 0.697,478.797 -74.202,706.528c-21.824,66.423 -48.9,131.134 -81.234,193.107c5.678,-30.808 10.582,-61.669 14.562,-92.345c37.187,-286.33 4.962,-574.144 -26.429,-859.419c13.81,-1.037 25.338,-5.488 29.204,-16.599c15.658,-3.097 22.264,-28.525 2.943,-31.414c-6.058,-0.906 -12.075,-1.431 -18.093,-1.811c-0.548,-0.281 -1.037,-0.62 -1.584,-0.865c-10.849,-5.116 -20.996,-1.906 -31.224,1.716c-8.943,1.073 -17.79,2.925 -26.506,5.529c-5.284,0.036 -10.545,0.072 -15.884,0.018c-15.752,-0.227 -18.545,17.504 -10.115,26.447c1.888,4.301 5.361,7.887 9.943,8.942c7.172,1.68 19.624,4.718 33.053,6.624c22.866,242.143 41.131,486.138 22.395,729.222c-9.413,121.948 -29.562,243.823 -65.16,360.998c-27.488,40.977 -62.714,89.972 -102.369,128.178c0.697,-2.699 1.417,-5.475 2.038,-8.001c24.753,-103.95 24.241,-214.713 21.28,-320.854c-6.959,-248.351 -60.238,-490.905 -146.755,-723.164c2.264,-0.548 4.546,-1.132 6.792,-1.87c15.127,0.756 30.426,-1.091 45.957,-6.054c16.277,-5.17 13.601,-25.79 -0.702,-31.092c-6.393,-2.377 -13.017,-3.867 -19.714,-4.677c-3.016,-2.699 -7.054,-4.415 -12.261,-4.32c-3.414,0.055 -6.828,0.132 -10.224,0.186c-21,-6.565 -49.263,0.833 -68.542,5.021c-16.151,3.509 -16.884,26.805 -3.677,34.144c10.337,5.773 21.507,9.187 32.845,10.509c71.385,204.11 111.778,417.673 125.081,633.459c6.094,98.838 7.715,198.961 -1.078,297.686c-4.034,45.219 -11.337,90.615 -25.129,133.964c-19.565,1.381 -38.147,0.566 -56.014,-1.807c-30.825,-80.826 -64.349,-160.945 -88.138,-244.37c-36.449,-127.856 -63.448,-258.579 -79.748,-390.506c-29.033,-234.73 -54.728,-512.321 84.652,-718.092c12.093,6.13 25.731,9.735 37.051,10.622c16.34,1.263 20.832,-20.112 11.681,-30.128c-21.869,-23.925 -51.92,-40.75 -84.312,-44.45c-19.506,-2.209 -28.186,19.638 -12.338,31.279c8.091,5.927 16.377,11.432 24.826,16.698c-144.456,204.146 -137.175,475.117 -111.004,713.357c15.372,140.022 42.127,278.872 80.215,414.484c20.225,71.952 41.9,148.943 69.805,222.769c-51.391,-21.983 -94.745,-59.826 -132.289,-105.879c-59.935,-100.893 -103.216,-211.24 -132.891,-324.626c-73.084,-279.46 -66.315,-571.047 -54.031,-857.245c0.435,-0.036 0.906,-0.113 1.359,-0.15c12.188,0.435 24.527,-0.625 37.146,-3.414c17.337,-3.812 13.207,-26.963 -0.716,-31.771c-30.997,-10.699 -64.181,-12.642 -96.084,-4.813c-12.601,3.115 -15.925,24.02 -3.152,29.281c11.736,4.849 23.866,8.245 36.11,9.961c-16.491,278.384 -35.24,564.26 26.904,838.211c-94.559,-205.354 -169.775,-420.67 -183.716,-647.667c5.13,-0.584 10.26,-1.354 15.354,-2.395c11.718,-2.395 13.434,-17.939 6.112,-25.41c-27.411,-28 -74.876,-26.302 -101.083,2.449c-9.431,10.342 -1.472,24.564 11.301,25.605c13.131,1.055 26.225,1.472 39.297,1.15c11.342,257.859 90.783,503.547 202.452,734.882c37.771,78.218 87.935,191.014 155.626,281.951c5.981,10.016 11.939,20.017 18.224,29.825c29.92,46.695 63.801,90.972 101.043,132.117c-27.258,10.622 -54.764,20.339 -82.497,28.923c-19.945,-6.941 -39.451,-15.204 -58.296,-24.826c-110.745,-56.43 -181.547,-155.965 -236.505,-264.369c-119.136,-235.012 -166.171,-500.02 -132.647,-761.162c3.871,-0.47 7.697,-1.245 11.474,-2.435c1.942,-0.603 3.735,-1.83 5.374,-3.265c0.494,-0.018 1.06,-0 1.549,-0.018c14.864,-0.906 22.507,-22.902 7.393,-30.015c-7.357,-3.45 -14.882,-6.28 -22.467,-8.752c-3.925,-2.02 -8.208,-3.229 -12.623,-3.491c-15.3,-3.754 -30.957,-5.696 -47.089,-5.284c-14.471,0.38 -18.791,16.943 -10.414,26.809c9.848,11.564 23.431,19.94 38.165,24.093c-37.844,280.552 5.152,573.542 139.95,824.025c56.652,105.249 134.494,195.316 241.404,248.762c-44.599,10.188 -89.406,16.979 -133.946,19.547c-124.062,-48.167 -204.448,-154.231 -270.65,-271.347c-155.19,-274.612 -279.085,-588.521 -239.824,-908.601c8.757,0.132 17.414,-0.624 25.378,-2.055c1.377,0.131 2.753,0.321 4.166,0.434c3.568,0.263 6.547,-1.154 8.811,-3.377c0.131,-0.041 0.285,-0.077 0.417,-0.114c12.714,-3.794 13.035,-20.053 2.884,-26.772c-26.298,-17.392 -58.975,-21.281 -88.782,-11.189c-13.488,4.569 -12.886,23.396 0.625,27.416c0.657,0.186 1.318,0.317 1.961,0.507c4.51,4.51 10.015,7.906 16.3,10.265c-47.411,348.696 80.237,708.584 264.311,1001.23c45.731,72.708 101.196,135.531 168.303,181.094c-99.426,-10.867 -195.715,-47.017 -283.708,-118.855c-200.582,-163.775 -284.192,-420.633 -318.377,-668.966c14.715,-3.794 28.316,-11.695 38.087,-24.318c5.398,-6.982 6.19,-19.506 -3.604,-23.808c-28.353,-12.397 -59.631,-7.625 -83.216,12.488c-0.15,0.131 -0.186,0.285 -0.322,0.417c-13.561,2.979 -21.371,22.281 -6.149,29.752" style="fill:#7a2cab;fill-rule:nonzero;"/></g><g><path d="M7175.97,4689.16c-53.844,-46.22 -98.348,-108.102 -133.022,-174.661c69.293,67.257 147.416,126.308 232.842,175.453c-33.279,1.943 -66.617,1.662 -99.82,-0.792m1543.61,-698.582c-0.132,-0.132 -0.132,-0.304 -0.286,-0.435c-22.734,-21.073 -53.785,-27.149 -82.632,-15.943c-9.979,3.885 -9.717,16.432 -4.6,23.622c9.259,13.036 22.503,21.484 37.069,25.881c-44.504,246.711 -138.719,499.87 -345.925,655.156c-90.914,68.107 -188.638,100.237 -288.421,106.951c68.936,-42.733 126.987,-103.197 175.697,-173.945c196.072,-284.722 338.549,-638.987 305.704,-989.362c6.375,-2.074 12.017,-5.243 16.717,-9.563c0.656,-0.172 1.317,-0.285 1.978,-0.457c13.661,-3.432 15.037,-22.223 1.757,-27.353c-29.376,-11.319 -62.144,-8.793 -89.18,7.507c-10.396,6.285 -10.753,22.526 1.771,26.868c0.135,0.037 0.303,0.073 0.434,0.114c2.169,2.318 5.076,3.866 8.662,3.735c1.395,-0.041 2.771,-0.172 4.17,-0.249c7.883,1.757 16.527,2.889 25.279,3.097c25.903,321.452 -110.931,629.932 -277.424,897.865c-71.009,114.25 -155.72,216.882 -281.684,259.837c-44.413,-4.396 -88.881,-13.054 -133.027,-25.088c109.048,-48.96 190.567,-135.703 251.561,-238.525c145.098,-244.634 200.224,-535.6 174.094,-817.474c14.865,-3.55 28.824,-11.342 39.107,-22.49c8.811,-9.508 5.152,-26.225 -9.264,-27.225c-16.092,-1.091 -31.844,0.208 -47.275,3.323c-4.433,0.095 -8.734,1.114 -12.737,2.979c-7.715,2.133 -15.335,4.66 -22.824,7.811c-15.418,6.452 -8.68,28.77 6.148,30.282c0.471,0.036 1.037,0.036 1.549,0.072c1.562,1.513 3.319,2.812 5.225,3.509c3.695,1.341 7.525,2.264 11.356,2.907c22.639,262.292 -35.371,525.131 -164.188,754.976c-59.427,106.024 -134.326,202.525 -247.277,254.309c-19.225,8.83 -39.07,16.282 -59.296,22.359c-27.353,-9.699 -54.429,-20.566 -81.215,-32.302c38.898,-39.559 74.613,-82.383 106.457,-127.815c6.679,-9.527 13.059,-19.28 19.434,-29.015c71.408,-88.047 126.231,-198.657 167.207,-275.254c121.196,-226.486 210.788,-468.665 232.861,-725.826c13.017,0.869 26.13,1.001 39.319,0.471c12.792,-0.489 21.336,-14.376 12.339,-25.111c-24.98,-29.789 -72.355,-33.466 -100.916,-6.656c-7.62,7.185 -6.547,22.788 5.058,25.654c5.053,1.263 10.146,2.246 15.263,3.038c-23.395,226.219 -107.5,438.215 -210.507,639.477c73.482,-271.139 66.636,-557.541 61.746,-836.382c12.302,-1.186 24.563,-4.093 36.489,-8.431c12.977,-4.736 10.527,-25.772 -1.924,-29.394c-31.545,-9.151 -64.825,-8.585 -96.216,0.81c-14.113,4.229 -19.189,27.19 -2.038,31.717c12.506,3.301 24.772,4.868 36.974,4.94c0.453,0.059 0.906,0.172 1.359,0.209c0.38,286.479 -4.999,578.088 -89.651,854.248c-34.334,112.081 -82.198,220.504 -146.266,318.835c-39.446,44.463 -84.313,80.459 -136.568,100.268c30.957,-72.594 55.823,-148.625 78.992,-219.671c43.712,-133.91 76.217,-271.519 97.402,-410.768c36.055,-236.954 54.579,-507.4 -81.238,-717.354c8.644,-4.926 17.152,-10.075 25.51,-15.68c16.3,-10.944 8.526,-33.148 -11.057,-31.731c-32.523,2.336 -63.24,17.903 -86.082,40.882c-9.55,9.621 -5.964,31.165 10.432,30.581c11.319,-0.394 25.129,-3.433 37.449,-9.056c130.7,211.372 93.477,487.663 54.728,720.977c-21.788,131.157 -54.203,260.634 -95.913,386.847c-27.262,82.388 -64.068,161.036 -98.235,240.503c-17.962,1.639 -36.562,1.676 -56.05,-0.511c-11.999,-43.902 -17.378,-89.556 -19.528,-134.893c-4.678,-99.005 1.095,-198.979 11.301,-297.477c22.263,-215.03 71.485,-426.746 151.324,-627.722c11.356,-0.828 22.675,-3.794 33.243,-9.132c13.488,-6.774 13.733,-30.092 -2.246,-34.258c-19.093,-4.98 -47.035,-13.547 -68.275,-7.869c-3.395,-0.19 -6.791,-0.394 -10.21,-0.602c-5.184,-0.34 -9.318,1.227 -12.429,3.789c-6.719,0.548 -13.415,1.757 -19.904,3.849c-14.489,4.718 -18.039,25.188 -1.983,31.056c15.281,5.583 30.508,8.073 45.677,7.942c2.205,0.847 4.45,1.508 6.696,2.151c-96.121,228.482 -159.438,468.61 -176.698,716.449c-7.375,105.914 -12.51,216.578 7.924,321.474c0.489,2.527 1.114,5.338 1.68,8.055c-38.016,-39.804 -71.182,-90.216 -96.936,-132.325c-30.694,-118.534 -45.767,-241.142 -50.087,-363.375c-8.602,-243.673 19.791,-486.685 52.713,-727.673c13.507,-1.341 26.053,-3.853 33.28,-5.23c4.641,-0.887 8.24,-4.319 10.3,-8.544c8.807,-8.585 6.733,-26.415 -9.001,-26.845c-5.32,-0.136 -10.604,-0.417 -15.884,-0.661c-8.584,-2.962 -17.337,-5.189 -26.243,-6.643c-10.074,-4.038 -20.072,-7.661 -31.11,-3.02c-0.548,0.249 -1.096,0.548 -1.621,0.815c-6.04,0.114 -12.094,0.412 -18.152,1.073c-19.429,2.056 -13.864,27.751 1.625,31.505c3.414,11.265 14.734,16.169 28.507,17.794c-43.24,283.704 -87.409,569.938 -62.167,857.567c2.699,30.826 6.321,61.841 10.718,92.875c-29.734,-63.258 -54.089,-129.043 -73.161,-196.317c-65.354,-230.656 -70.805,-472.042 -44.73,-709.019c6.638,-1.603 12.923,-4.206 18.904,-7.43c0.679,-0.136 1.394,-0.19 2.074,-0.362c4.659,-1.109 7.715,-3.736 9.544,-6.941c0.512,-0.376 1.037,-0.661 1.531,-1.037c12.505,-9.604 3.015,-26.809 -9.866,-28.942c-15.114,-2.49 -30.699,-2.074 -45.618,1.286c-7.077,-0.946 -14.53,1.811 -20.149,6.656c-1.607,0.702 -3.228,1.358 -4.795,2.151c-15.299,7.584 -10.056,25.038 2.305,30.223c5.487,4.605 13.656,6.302 21.62,6.678c-33.433,266.729 -32.94,541.866 54.728,798.706c29.507,86.481 67.727,169.453 115.119,247.295c14.018,56.938 31.659,112.802 54.166,166.135c3.79,8.942 7.96,17.844 12.357,26.655c-129.989,-67.804 -242.541,-158.605 -334.51,-265.801c-8.304,-22.883 -15.549,-45.672 -21.602,-67.971c-67.691,-249.428 -85.164,-511.851 -54.352,-768.166c2.753,-0.43 5.546,-0.883 8.263,-1.471c16.051,-3.319 17.749,-26.827 2.074,-32.107c-3.772,-1.263 -7.584,-2.133 -11.415,-2.775c-2.83,-1.717 -6.488,-2.11 -9.83,-1.019c-0.525,-0 -1.018,-0.055 -1.526,-0.055c-18.622,-4.378 -39.093,-4.265 -57.014,1.658c-13.864,4.604 -17.45,24.282 -1.906,29.924c6.171,2.246 12.51,3.962 18.922,5.225c4.681,5.809 12.32,8.811 19.809,3.849c0.833,-0.53 1.662,-0.87 2.49,-1.359c2.49,0.095 5.003,0.132 7.512,0.095c-32.695,247.404 -28.657,509.7 35.145,752.993c-164.867,-231.389 -243.085,-522.414 -210.014,-817.949c4.338,-0.018 8.734,-0.262 13.167,-0.887c7.793,-1.114 11.886,-7.507 12.529,-14.34c2.793,-0.262 5.582,-0.43 8.376,-0.769c17.659,-2.115 14.638,-29.037 -2.151,-30.432c-23.015,-1.924 -46.183,-2.644 -69.257,-3.871c-4.301,-0.245 -7.376,1.363 -9.431,3.758c-12.094,1.961 -15.735,17.391 -8.096,26.506c1.376,4.129 4.378,7.828 9.395,9.979c6.094,2.604 14.19,5.678 22.698,7.793c-53.541,337.453 51.146,669.735 262.441,918.579c1.227,3.586 2.264,7.226 3.527,10.79c29.639,85.123 79.635,171.794 144.759,239.598c-81.03,-12.904 -160.131,-38.939 -233.332,-78.481c-180.492,-97.52 -300.117,-269.88 -406.52,-439.917c6.696,-6.547 12.338,-14.394 16.223,-23.694c1.453,-3.509 1.394,-6.982 0.434,-10.133c0.168,-0.245 0.394,-0.471 0.548,-0.734c3.826,-6.303 -0.059,-13.321 -7.059,-14.358c-13.338,-2.019 -26.279,2.64 -38.241,9.753c-20.62,2.454 -39.804,17.152 -48.769,35.829c-3.623,7.584 2.263,19.184 10.282,21.127c17.02,4.133 33.904,2.132 48.375,-4.845c108.459,184.282 220.731,370.221 415.993,473.609c94.817,50.2 198.884,79.327 304.568,87.196c76.049,56.335 166.569,86.065 265.936,66.613c27.995,15.341 59.916,23.378 96.175,20.113c4.981,-0.435 8.775,-2.151 11.682,-4.528c5.261,-1.299 10.015,-4.17 13.506,-9.205l3.283,-4.736c3.677,0.113 7.412,-0.018 11.093,-0.018c83.217,40.596 183.073,54.293 269.894,44.975c29.978,-3.206 58.504,-9.264 85.67,-17.79c139.946,12.076 279.176,-16.038 406.747,-107.255c227.034,-162.299 316.381,-433.877 359.056,-698.319c8.738,-0.752 17.359,-2.848 25.432,-6.412c15.526,-6.832 8.526,-26.451 -4.903,-29.978" style="fill:#de65de;fill-rule:nonzero;"/></g><g><path d="M8606.22,8019.86c-204.734,-76.837 -363.601,-258.384 -496.85,-425.216c-134.685,-168.661 -248.147,-354.247 -338.948,-549.979c-194.184,-418.614 -288.082,-875.507 -295.761,-1336.03c-3.789,-227.047 13.375,-453.645 46.958,-677.998c45.921,-1.87 109.537,-53.297 134.137,-74.655c29.847,-25.94 83.388,-93.404 71.86,-140.511c-0.642,-10.247 -5.999,-20.262 -15.978,-25.868c-5.565,-4.337 -11.886,-5.773 -18.093,-4.713c-69.729,33.487 -305.514,-14.358 -355.719,-48.525c-4.034,-2.735 -10.242,2.038 -14.072,5.47c-4.206,1.757 -7.697,5.152 -8.829,9.87c-21.901,90.217 48.185,226.577 135.06,272.987c-130.288,895.754 10.151,1848.04 584.522,2572.91c146.719,185.134 322.928,383.393 551.863,463.213c27.208,9.473 47.488,-30.58 19.85,-40.958" style="fill:#182047;fill-rule:nonzero;"/></g><g><path d="M805.558,4816.39c-55.733,-43.938 -102.763,-103.931 -140.177,-168.982c72.033,64.313 152.533,120.064 239.938,165.623c-33.166,3.323 -66.482,4.455 -99.761,3.359m1513.23,-762.162c-0.149,-0.131 -0.168,-0.303 -0.322,-0.416c-23.598,-20.113 -54.881,-24.903 -83.234,-12.506c-9.794,4.302 -9.002,16.844 -3.604,23.807c9.771,12.642 23.377,20.543 38.092,24.319c-34.185,248.332 -117.782,505.191 -318.382,668.966c-87.989,71.82 -184.282,107.988 -283.703,118.85c67.102,-45.54 122.567,-108.382 168.298,-181.089c184.078,-292.651 311.722,-652.535 264.334,-1001.21c6.28,-2.359 11.772,-5.773 16.277,-10.265c0.643,-0.19 1.322,-0.339 1.983,-0.548c13.507,-3.998 14.091,-22.847 0.603,-27.393c-29.807,-10.092 -62.466,-6.208 -88.782,11.206c-10.133,6.697 -9.83,22.961 2.885,26.751c0.135,0.059 0.285,0.077 0.416,0.113c2.282,2.228 5.243,3.645 8.811,3.378c1.413,-0.095 2.794,-0.299 4.17,-0.435c7.96,1.435 16.622,2.191 25.392,2.038c39.243,320.098 -84.634,634.006 -239.842,908.64c-66.201,117.117 -146.57,223.181 -270.65,271.329c-44.54,-2.549 -89.347,-9.377 -133.946,-19.546c106.933,-53.446 184.771,-143.495 241.427,-248.767c134.775,-250.483 177.771,-543.469 139.946,-824.021c14.715,-4.152 28.316,-12.528 38.146,-24.074c8.395,-9.884 4.057,-26.452 -10.414,-26.809c-16.11,-0.435 -31.789,1.508 -47.089,5.266c-4.414,0.28 -8.698,1.471 -12.619,3.509c-7.584,2.431 -15.114,5.279 -22.453,8.734c-15.128,7.095 -7.489,29.109 7.398,30.015c0.471,0.018 1.037,-0 1.526,0.018c1.644,1.435 3.455,2.662 5.415,3.264c3.736,1.209 7.584,1.961 11.433,2.454c33.524,261.119 -13.506,526.15 -132.647,761.143c-54.954,108.423 -125.76,207.94 -236.465,264.366c-18.867,9.621 -38.373,17.907 -58.331,24.83c-27.715,-8.567 -55.24,-18.301 -82.483,-28.905c37.223,-41.145 71.104,-85.44 101.029,-132.136c6.28,-9.811 12.261,-19.809 18.224,-29.806c67.691,-90.955 117.873,-203.733 155.621,-281.969c111.669,-231.317 191.114,-477.023 202.452,-734.882c13.072,0.339 26.166,-0.077 39.297,-1.155c12.773,-1.037 20.733,-15.258 11.301,-25.6c-26.207,-28.733 -73.654,-30.431 -101.065,-2.472c-7.34,7.493 -5.624,23.037 6.094,25.433c5.094,1.055 10.224,1.829 15.359,2.395c-13.946,226.997 -89.144,442.312 -183.716,647.667c62.144,-273.951 43.39,-559.828 26.918,-838.211c12.247,-1.716 24.377,-5.112 36.091,-9.943c12.773,-5.261 9.472,-26.203 -3.152,-29.3c-31.88,-7.828 -65.087,-5.868 -96.08,4.814c-13.923,4.808 -18.039,27.977 -0.72,31.789c12.624,2.771 24.962,3.826 37.146,3.396c0.453,0.036 0.929,0.113 1.381,0.15c12.262,286.193 19.053,577.802 -54.053,857.245c-29.657,113.386 -72.952,223.733 -132.873,324.626c-37.562,46.071 -80.916,83.914 -132.307,105.874c27.905,-73.822 49.602,-150.812 69.805,-222.786c38.111,-135.59 64.861,-274.422 80.22,-414.444c26.184,-238.258 33.447,-509.23 -110.972,-713.375c8.417,-5.266 16.698,-10.754 24.789,-16.717c15.848,-11.623 7.172,-33.469 -12.338,-31.242c-32.392,3.677 -62.443,20.507 -84.308,44.45c-9.132,9.997 -4.663,31.373 11.677,30.087c11.338,-0.883 24.958,-4.451 37.052,-10.599c139.379,205.77 113.684,483.361 84.67,718.069c-16.319,131.95 -43.318,262.672 -79.767,390.524c-23.789,83.425 -57.295,163.549 -88.138,244.371c-17.849,2.395 -36.449,3.187 -56.014,1.811c-13.791,-43.354 -21.072,-88.745 -25.111,-133.947c-8.811,-98.742 -7.167,-198.847 -1.096,-297.703c13.303,-215.768 53.696,-429.332 125.104,-633.477c11.319,-1.304 22.485,-4.736 32.826,-10.491c13.203,-7.339 12.47,-30.64 -3.663,-34.149c-19.297,-4.188 -47.56,-11.582 -68.555,-5.016c-3.396,-0.059 -6.815,-0.114 -10.229,-0.191c-5.188,-0.095 -9.241,1.644 -12.243,4.32c-6.715,0.815 -13.339,2.305 -19.732,4.682c-14.281,5.32 -16.961,25.903 -0.697,31.11c15.526,4.922 30.825,6.792 45.957,6.036c2.264,0.733 4.528,1.299 6.792,1.865c-86.522,232.259 -139.796,474.836 -146.742,723.169c-2.979,106.14 -3.491,216.9 21.281,320.872c0.606,2.49 1.34,5.279 2.019,7.978c-39.636,-38.201 -74.876,-87.197 -102.365,-128.173c-35.602,-117.176 -55.751,-239.033 -65.146,-360.98c-18.749,-243.107 -0.453,-487.097 22.377,-729.24c13.434,-1.906 25.903,-4.926 33.053,-6.606c4.604,-1.073 8.055,-4.659 9.943,-8.961c8.449,-8.942 5.641,-26.677 -10.093,-26.451c-5.343,0.077 -10.622,0.023 -15.906,-0.018c-8.716,-2.586 -17.563,-4.469 -26.506,-5.529c-10.224,-3.622 -20.357,-6.828 -31.224,-1.716c-0.529,0.267 -1.036,0.584 -1.584,0.87c-6.018,0.357 -12.035,0.923 -18.075,1.829c-19.334,2.866 -12.714,28.317 2.925,31.414c3.866,11.093 15.394,15.544 29.204,16.599c-31.391,285.252 -63.616,573.053 -26.429,859.396c3.998,30.676 8.902,61.542 14.584,92.349c-32.337,-61.954 -59.427,-126.683 -81.256,-193.111c-74.899,-227.73 -90.388,-468.682 -74.202,-706.524c6.584,-1.888 12.737,-4.754 18.605,-8.209c0.657,-0.19 1.377,-0.262 2.038,-0.452c4.6,-1.3 7.543,-4.075 9.259,-7.34c0.494,-0.394 1.001,-0.715 1.472,-1.091c12.093,-10.115 1.906,-26.941 -11.071,-28.525c-15.168,-1.852 -30.735,-0.793 -45.504,3.187c-7.132,-0.661 -14.435,2.414 -19.85,7.507c-1.585,0.756 -3.17,1.472 -4.714,2.323c-14.941,8.223 -9.001,25.428 3.546,30.11c5.677,4.374 13.923,5.732 21.901,5.773c-22.318,267.874 -10.392,542.789 87.88,795.74c33.089,85.164 74.709,166.492 125.325,242.297c16.377,56.294 36.3,111.384 61.012,163.734c4.152,8.793 8.698,17.491 13.452,26.112c-132.705,-62.334 -248.916,-148.363 -345.263,-251.651c-9.264,-22.508 -17.432,-44.997 -24.414,-67.012c-78.01,-246.389 -106.367,-507.87 -86.255,-765.236c2.753,-0.548 5.488,-1.132 8.205,-1.811c15.888,-4.002 16.603,-27.547 0.738,-32.17c-3.813,-1.109 -7.661,-1.829 -11.51,-2.318c-2.925,-1.585 -6.584,-1.829 -9.902,-0.584c-0.494,-0 -1.001,-0.018 -1.513,-0c-18.767,-3.604 -39.22,-2.644 -56.878,4.034c-13.679,5.171 -16.431,24.962 -0.679,29.979c6.262,1.965 12.66,3.414 19.13,4.414c4.944,5.624 12.678,8.282 19.958,3.038c0.811,-0.565 1.626,-0.941 2.418,-1.453c2.509,-0.018 4.999,-0.095 7.507,-0.226c-22.376,248.54 -7.434,510.438 66.446,750.864c-174.357,-224.334 -264.614,-511.85 -243.841,-808.499c4.338,-0.208 8.716,-0.62 13.131,-1.453c7.715,-1.413 11.528,-7.996 11.903,-14.829c2.772,-0.376 5.565,-0.679 8.318,-1.114c17.568,-2.848 13.434,-29.639 -3.396,-30.336c-23.092,-0.96 -46.274,-0.715 -69.366,-0.978c-4.324,-0.041 -7.321,1.675 -9.246,4.147c-12.016,2.473 -15.018,18.039 -7.018,26.828c1.567,4.075 4.696,7.625 9.812,9.585c6.203,2.341 14.43,5.076 23.015,6.828c-39.469,339.382 78.933,667.042 300.42,906.884c1.34,3.527 2.545,7.113 3.944,10.622c33.148,83.819 86.725,168.34 154.625,233.391c-81.542,-9.527 -161.625,-32.243 -236.411,-68.728c-184.395,-89.936 -311.079,-257.161 -424.464,-422.635c6.416,-6.809 11.736,-14.887 15.209,-24.355c1.317,-3.568 1.132,-7 0.036,-10.115c0.149,-0.281 0.358,-0.489 0.489,-0.77c3.568,-6.452 -0.602,-13.302 -7.638,-14.058c-13.394,-1.449 -26.148,3.735 -37.789,11.342c-20.489,3.301 -39.071,18.808 -47.239,37.825c-3.301,7.716 3.056,19.071 11.147,20.697c17.152,3.432 33.959,0.697 48.126,-6.869c116.007,179.605 235.94,360.735 435.349,455.914c96.805,46.202 202,70.974 307.914,74.442c78.349,53.107 169.997,79.051 268.477,55.484c28.602,14.149 60.844,20.887 96.954,16.114c4.921,-0.643 8.657,-2.508 11.469,-5.021c5.188,-1.526 9.811,-4.582 13.112,-9.753l3.074,-4.867c3.7,-0.055 7.399,-0.34 11.075,-0.471c84.82,37.073 185.188,46.618 271.538,33.714c29.824,-4.474 58.069,-11.696 84.86,-21.34c140.303,6.226 278.27,-27.638 401.956,-124.08c220.07,-171.622 298.021,-446.668 329.697,-712.659c8.68,-1.091 17.224,-3.563 25.13,-7.448c15.245,-7.494 7.434,-26.791 -6.131,-29.753" style="fill:#c4803d;fill-rule:nonzero;"/></g><g><path d="M1457.54,4743.27c85.422,-49.145 163.545,-108.215 232.843,-175.471c-34.679,66.559 -79.164,128.441 -133.027,174.661c-33.203,2.472 -66.536,2.752 -99.82,0.81m-1448.69,-669.4c8.077,3.549 16.698,5.641 25.433,6.397c42.674,264.443 132.021,536.016 359.055,698.32c127.589,91.235 266.819,119.326 406.747,107.273c27.185,8.508 55.71,14.561 85.67,17.79c86.821,9.3 186.695,-4.397 269.894,-44.998c3.699,0 7.416,0.132 11.093,0.023l3.287,4.731c3.487,5.04 8.241,7.906 13.507,9.21c2.907,2.395 6.696,4.093 11.677,4.546c36.259,3.264 68.18,-4.795 96.18,-20.131c99.385,19.47 189.882,-10.282 265.932,-66.617c105.688,-7.865 209.768,-36.993 304.572,-87.179c195.28,-103.401 307.551,-289.327 415.992,-473.627c14.467,6.982 31.373,9.001 48.389,4.868c8.019,-1.943 13.887,-13.548 10.264,-21.15c-8.942,-18.659 -28.149,-33.352 -48.769,-35.824c-11.962,-7.095 -24.903,-11.754 -38.241,-9.753c-7,1.055 -10.885,8.055 -7.055,14.376c0.168,0.263 0.376,0.471 0.548,0.734c-0.964,3.151 -1.019,6.601 0.43,10.11c3.89,9.305 9.531,17.151 16.228,23.699c-106.404,170.055 -226.033,342.397 -406.502,439.913c-73.22,39.564 -152.325,65.599 -233.355,78.503c65.124,-67.804 115.12,-154.476 144.777,-239.616c1.245,-3.568 2.282,-7.209 3.509,-10.772c211.299,-248.844 315.987,-581.144 262.446,-918.58c8.507,-2.132 16.599,-5.207 22.693,-7.81c5.017,-2.151 8.019,-5.832 9.413,-9.961c7.625,-9.115 3.98,-24.564 -8.109,-26.529c-2.06,-2.377 -5.135,-3.98 -9.418,-3.753c-23.069,1.227 -46.256,1.942 -69.275,3.867c-16.789,1.399 -19.809,28.339 -2.151,30.431c2.812,0.34 5.587,0.512 8.376,0.774c0.643,6.828 4.737,13.244 12.529,14.34c4.433,0.638 8.829,0.865 13.167,0.905c33.075,295.531 -45.143,586.537 -210.014,817.927c63.824,-243.293 67.841,-505.585 35.15,-752.975c2.508,0.041 5.017,-0.018 7.525,-0.091c0.81,0.471 1.644,0.811 2.472,1.359c7.507,4.939 15.132,1.942 19.827,-3.872c6.398,-1.263 12.737,-2.979 18.904,-5.225c15.544,-5.641 11.962,-25.315 -1.906,-29.901c-17.921,-5.923 -38.391,-6.036 -57.01,-1.662c-0.511,-0 -1,0.041 -1.512,0.059c-3.337,-1.114 -7.018,-0.716 -9.848,1c-3.831,0.661 -7.639,1.508 -11.415,2.771c-15.675,5.302 -13.977,28.793 2.079,32.112c2.734,0.584 5.505,1.036 8.263,1.471c30.807,256.31 13.339,518.756 -54.352,768.179c-6.04,22.3 -13.303,45.093 -21.602,67.976c-91.974,107.196 -204.526,197.997 -334.51,265.801c4.396,-8.829 8.58,-17.717 12.356,-26.66c22.508,-53.351 40.148,-109.211 54.162,-166.13c47.392,-77.842 85.616,-160.832 115.119,-247.295c87.672,-256.858 88.179,-532 54.733,-798.724c7.959,-0.376 16.15,-2.056 21.62,-6.66c12.356,-5.189 17.599,-22.639 2.3,-30.242c-1.567,-0.774 -3.188,-1.453 -4.79,-2.15c-5.624,-4.85 -13.077,-7.602 -20.149,-6.643c-14.924,-3.377 -30.509,-3.771 -45.618,-1.299c-12.886,2.133 -22.376,19.356 -9.866,28.96c0.489,0.358 1.019,0.656 1.526,1.019c1.829,3.205 4.903,5.845 9.544,6.959c0.68,0.149 1.4,0.208 2.079,0.358c5.999,3.228 12.261,5.813 18.921,7.416c26.072,236.972 20.602,478.363 -44.748,709.037c-19.076,67.256 -43.431,133.041 -73.165,196.317c4.397,-31.034 8.019,-62.049 10.718,-92.879c25.242,-287.629 -18.922,-573.859 -62.163,-857.585c13.769,-1.603 25.111,-6.525 28.507,-17.79c15.508,-3.754 21.073,-29.431 1.621,-31.505c-6.058,-0.661 -12.112,-0.946 -18.147,-1.059c-0.53,-0.281 -1.06,-0.584 -1.608,-0.811c-11.052,-4.641 -21.031,-1.037 -31.106,3.002c-8.906,1.454 -17.681,3.677 -26.261,6.638c-5.284,0.249 -10.568,0.53 -15.888,0.679c-15.734,0.417 -17.808,18.265 -8.997,26.85c2.056,4.206 5.678,7.657 10.301,8.544c7.226,1.358 19.791,3.867 33.279,5.207c32.922,241.011 61.334,484.005 52.713,727.678c-4.301,122.228 -19.397,244.841 -50.091,363.393c-25.732,42.09 -58.916,92.517 -96.931,132.325c0.566,-2.735 1.186,-5.546 1.675,-8.073c20.434,-104.896 15.322,-215.546 7.924,-321.474c-17.26,-247.844 -80.573,-487.967 -176.675,-716.436c2.241,-0.656 4.487,-1.317 6.678,-2.169c15.186,0.154 30.391,-2.336 45.69,-7.941c16.056,-5.85 12.492,-26.316 -1.997,-31.034c-6.492,-2.114 -13.189,-3.319 -19.904,-3.849c-3.115,-2.567 -7.226,-4.134 -12.433,-3.812c-3.396,0.208 -6.81,0.416 -10.206,0.625c-21.244,-5.701 -49.186,2.866 -68.257,7.865c-15.978,4.17 -15.752,27.47 -2.264,34.262c10.564,5.32 21.883,8.299 33.239,9.132c79.843,200.976 129.065,412.669 151.324,627.704c10.206,98.516 15.979,198.486 11.301,297.495c-2.15,45.337 -7.525,90.991 -19.523,134.875c-19.493,2.187 -38.093,2.15 -56.032,0.507c-34.167,-79.463 -70.996,-158.116 -98.235,-240.504c-41.733,-126.19 -74.143,-255.667 -95.936,-386.842c-38.749,-233.314 -75.972,-509.587 54.732,-720.977c12.339,5.619 26.13,8.657 37.45,9.055c16.391,0.584 19.977,-20.941 10.432,-30.562c-22.829,-23.002 -53.559,-38.564 -86.087,-40.905c-19.583,-1.394 -27.353,20.81 -11.034,31.754c8.335,5.601 16.847,10.754 25.487,15.657c-135.817,209.977 -117.289,480.419 -81.238,717.355c21.185,139.271 53.695,276.875 97.406,410.785c23.187,71.032 48.049,147.063 78.993,219.676c-52.26,-19.827 -97.122,-55.823 -136.573,-100.273c-64.068,-98.326 -111.932,-206.767 -146.266,-318.83c-84.652,-276.16 -90.027,-567.788 -89.651,-854.248c0.453,-0.059 0.906,-0.15 1.359,-0.209c12.207,-0.095 24.468,-1.661 36.978,-4.944c17.147,-4.546 12.089,-27.484 -2.037,-31.731c-31.396,-9.395 -64.676,-9.961 -96.198,-0.81c-12.47,3.622 -14.924,24.676 -1.925,29.394c11.904,4.338 24.165,7.245 36.467,8.431c-4.885,278.836 -11.736,565.261 61.746,836.381c-103.007,-201.243 -187.112,-413.239 -210.502,-639.476c5.112,-0.792 10.205,-1.775 15.263,-3.038c11.6,-2.871 12.678,-18.469 5.053,-25.641c-28.561,-26.827 -75.913,-23.146 -100.893,6.66c-9.001,10.736 -0.471,24.6 12.338,25.112c13.167,0.529 26.28,0.394 39.315,-0.489c22.055,257.179 111.651,499.358 232.843,725.844c40.976,76.574 95.804,187.207 167.207,275.232c6.38,9.735 12.755,19.492 19.452,29.037c31.826,45.409 67.541,88.233 106.444,127.797c-26.791,11.736 -53.863,22.603 -81.22,32.315c-20.226,-6.09 -40.071,-13.543 -59.296,-22.372c-112.951,-51.789 -187.845,-148.267 -247.273,-254.295c-128.798,-229.859 -186.813,-492.68 -164.192,-754.994c3.849,-0.639 7.661,-1.562 11.361,-2.903c1.901,-0.697 3.658,-1.983 5.243,-3.491c0.489,-0.036 1.055,-0.036 1.526,-0.077c14.828,-1.526 21.566,-23.825 6.153,-30.295c-7.489,-3.152 -15.114,-5.683 -22.829,-7.811c-3.98,-1.87 -8.3,-2.888 -12.733,-2.965c-15.435,-3.111 -31.169,-4.415 -47.261,-3.319c-14.43,0.982 -18.093,17.694 -9.282,27.203c10.283,11.152 24.242,18.944 39.111,22.489c-26.13,281.893 28.997,572.845 174.095,817.496c60.989,102.8 142.513,189.566 251.556,238.503c-44.146,12.035 -88.614,20.696 -133.023,25.093c-125.968,-42.942 -210.674,-145.569 -281.688,-259.842c-166.492,-267.915 -303.323,-576.408 -277.424,-897.847c8.775,-0.203 17.396,-1.335 25.283,-3.11c1.395,0.077 2.771,0.208 4.171,0.262c3.581,0.132 6.488,-1.43 8.657,-3.735c0.131,-0.036 0.303,-0.072 0.434,-0.131c12.529,-4.32 12.167,-20.584 1.775,-26.864c-27.035,-16.282 -59.808,-18.808 -89.179,-7.511c-13.285,5.134 -11.904,23.925 1.752,27.375c0.661,0.154 1.322,0.267 1.983,0.434c4.695,4.32 10.337,7.489 16.712,9.586c-32.845,350.357 109.632,704.64 305.704,989.362c48.733,70.747 106.762,131.194 175.716,173.927c-99.798,-6.701 -197.526,-38.848 -288.422,-106.951c-207.22,-155.286 -301.439,-408.427 -345.925,-655.138c14.566,-4.397 27.81,-12.868 37.056,-25.886c5.112,-7.185 5.393,-19.75 -4.605,-23.617c-28.846,-11.224 -59.898,-5.152 -82.632,15.92c-0.132,0.136 -0.15,0.304 -0.281,0.435c-13.434,3.527 -20.434,23.151 -4.908,29.997" style="fill:#f7a84c;fill-rule:nonzero;"/></g><g><path d="M127.138,8073.15c204.734,-76.841 363.606,-258.384 496.855,-425.215c134.679,-168.661 248.142,-354.247 338.942,-549.98c194.184,-418.614 288.082,-875.506 295.761,-1336.03c3.79,-227.07 -13.357,-453.646 -46.958,-677.999c-45.902,-1.888 -109.536,-53.297 -134.136,-74.655c-29.847,-25.939 -83.37,-93.404 -71.861,-140.529c0.643,-10.229 6,-20.244 15.979,-25.849c5.565,-4.338 11.885,-5.755 18.093,-4.737c69.728,33.506 305.532,-14.335 355.718,-48.501c4.035,-2.735 10.242,2.019 14.073,5.451c4.206,1.775 7.697,5.171 8.847,9.884c21.906,90.217 -48.185,226.563 -135.078,272.991c130.288,895.75 -10.151,1848.04 -584.522,2572.91c-146.701,185.128 -322.928,383.392 -551.863,463.213c-27.208,9.472 -47.488,-30.581 -19.85,-40.959" style="fill:#182047;fill-rule:nonzero;"/></g></g></svg>