<?xml version="1.0" encoding="UTF-8" standalone="no"?><!DOCTYPE svg PUBLIC "-//W3C//DTD SVG 1.1//EN" "http://www.w3.org/Graphics/SVG/1.1/DTD/svg11.dtd"><svg width="100%" height="100%" viewBox="0 0 77188 36184" version="1.1" xmlns="http://www.w3.org/2000/svg" xmlns:xlink="http://www.w3.org/1999/xlink" xml:space="preserve" xmlns:serif="http://www.serif.com/" style="fill-rule:evenodd;clip-rule:evenodd;stroke-linejoin:round;stroke-miterlimit:2;"><g><g><g><path d="M63166,17745.4c-369.088,200.316 -506.12,587.76 -584.221,967.924c-78.063,378.11 -177.314,1291.93 -811.907,876.739c-589.841,-386.398 -347.877,-1434.08 -374.432,-2029.93c-30.355,-675.279 -114.521,-1372.93 -309.54,-2022.66c-311.633,-1036.15 -1221.49,-1869.05 -2203.26,-1705.72c-1942.49,322.886 -1641.25,2154.48 -1556.22,2653.5c9.509,60.052 15.861,121.074 17.549,181.458c6.079,195.225 -22.296,242.833 -259.289,205.274c-392.919,-61.143 -601.034,-439.786 -761.373,-753.092c-237.365,-462.167 -491.139,-875.734 -894.39,-1218.16c-737.42,-626.791 -1769.3,-932.286 -2743.13,-812.302c-490.942,60.713 -1143.19,223.693 -1442.82,643.738c-289.424,405.463 -122.285,931.396 183.592,1273.23c411.912,461.24 1031.45,536.881 1595.31,724.631c623.977,208.219 1054.14,652.456 1165.81,1258.34c-1514.77,-356.197 -3036.86,-1006.49 -4617.94,-635.777c-1247.01,292.1 -2269.52,1247.35 -2117.45,2570.24c59.306,520.052 318.401,1035.7 780.814,1318.62c628.675,383.844 1389.1,228.254 2064.57,58.389c934.774,-235.186 1868.24,-476.032 2801.58,-714.886c467.156,-119.464 933.845,-239.405 1401.12,-358.879c425.464,-108.255 946.564,-286.146 1377.81,-119.034c184.211,72.204 395.742,248.619 428.379,450.907c39.526,240.71 -132.263,406.885 -309.273,549.936c-341.154,276.076 -753.437,462.938 -1154.87,636.718c-717.7,310.414 -1480.1,583.735 -2066.01,1114.39c-484.043,438.096 -790.679,1031.65 -745.613,1684.12c43.56,610.969 443.665,1122.3 1052.65,1284.61c624.032,166.283 1303.25,-27.972 1877.98,-280.356c763.379,-335.294 1483.99,-784.423 2127.41,-1307.96c319.207,-259.587 600.31,-583.277 949.556,-804.946c184.184,-116.728 403.441,-212.538 621.205,-140.935c256.248,84.468 439.708,334.311 197.087,543.83c-279.464,241.185 -647.316,366.356 -923.066,625.047c-247.334,232.03 -440.441,517.144 -506.874,849.369c-144.274,723.129 400.45,1258.8 1080.08,1424.92c781.159,191.827 1605.85,-104.117 2251.67,-537.056c749.748,-503.446 1285.36,-1244.83 1951.56,-1839.73c655.337,-585.81 1448.36,-975.911 2314.8,-1075.11c151.915,-17.548 304.395,1.348 456.516,17.579c49.569,5.459 102.821,-7.504 148.56,-34.412c76.078,-44.282 131.589,-127.453 114.192,-228.086c-1.796,-12.208 -4.681,-24.593 -9.09,-37.464c-230.075,-689.726 -376.883,-1400.77 -430.15,-2125.5c-48.581,-658.171 36.036,-1339.32 -129.204,-1983.99c-203.954,-796.301 -1124.18,-1629.36 -2009.68,-1147.52" style="fill:#fbfec7;fill-rule:nonzero;"/></g><g><path d="M63787.2,20201.6c-59.82,636.894 40.38,1241.63 213.221,1852.18c596.914,291.695 1177.7,614.421 1740.26,983.426c1.017,1.037 2.521,1.637 3.542,2.674c17.413,100.622 -38.101,183.696 -114.128,228.029c-58.233,-39.341 -115.941,-78.168 -173.691,-115.949c-1288.75,-849.213 -2699.6,-1442.93 -4136.9,-2011.93c-529.68,-209.717 -1060.03,-415.907 -1593.65,-615.036c-5.848,3.492 -12.257,6.511 -19.137,8.956c-600.99,212.945 -1068.07,618.042 -1554.5,1008.5c-419.719,337.778 -837.847,672.968 -1278.34,982.358c-32.472,22.453 -65.276,-27.743 -39.554,-52.863c460.72,-448.219 952.603,-866.8 1450.18,-1277.5c365.371,-301.795 737.541,-581.964 1172.38,-768.967c-580.99,-213.67 -1165.87,-416.71 -1756.97,-602.894c-391.517,-123.515 -786.326,-238.946 -1185.6,-343.186c-28.926,4.129 -60.145,-2.569 -83.823,-21.334c-2103.29,-541.872 -4297.03,-777.001 -6448.04,-286.479c-75.352,16.707 -102.931,-96.377 -27.567,-114.104c1400.76,-324.479 2843.5,-354.447 4264.1,-172.732c721.346,91.996 1431.93,233.049 2134.45,405.691c-324.928,-901.731 -758.511,-1774.48 -1292.95,-2573.61c-40.392,-61.072 59.823,-111.206 100.831,-53.713c602.203,836.625 1075.88,1719.75 1425.95,2684.85c1763.37,452.923 3474.57,1106.74 5167.71,1748.48c676.859,256.688 1340.25,528 1986.61,832.275c-143.722,-561.915 -146.277,-1155.29 -67.541,-1728.96c9.575,-68.958 119.642,-70.253 113.128,1.833" style="fill:#242e6b;fill-rule:nonzero;"/></g></g><g><g><path d="M17369.7,27266.1c168.971,-374.726 36.626,-764.913 -138.124,-1115.16c-173.483,-348.631 -663.992,-1139.22 100.057,-1174.03c710.352,-31.952 1170.64,948.8 1563.17,1411.35c445.022,524.186 946.847,1035.09 1507.06,1443.34c893.862,650.479 2137.24,791.289 2817.12,91.127c1345.34,-1385.14 -35.998,-2679.93 -414.748,-3030.93c-44.976,-42.67 -88.01,-88.032 -127.017,-135.502c-126.52,-153.003 -133.564,-207.752 78.523,-314.945c350.963,-178.697 752.544,4.369 1075.52,162.841c476.972,233.026 936.843,417.766 1471.33,458.649c977.705,75.415 1989.63,-277.752 2690.19,-938.538c353.015,-333.209 770.702,-842.112 747.552,-1352.85c-22.328,-493.007 -483.23,-818.061 -939.779,-914.922c-615.367,-131.384 -1155.71,167.223 -1721.65,343.442c-626.638,194.741 -1245.87,87.72 -1712.42,-333.626c1428.01,-592.35 3045.11,-953.154 4072.94,-2167.11c810.724,-957.174 1029.4,-2316.27 84.006,-3289.35c-371.384,-382.867 -899.028,-646.32 -1443.58,-605.223c-739.635,56.446 -1248.13,622.116 -1680.09,1149.94c-597.664,730.624 -1190.67,1464.98 -1784.94,2197.71c-297.509,366.664 -594.282,733.389 -891.849,1100.1c-271.306,333.519 -575.283,778.363 -1022.8,894.208c-191.681,48.938 -469.92,29.926 -621.999,-113.382c-181.58,-170.099 -148.425,-403.043 -96.61,-620.402c99.569,-419.282 311.391,-808.163 522.738,-1180.32c377.928,-665.094 814.573,-1326.3 950.316,-2091.71c112.36,-632.075 -13.452,-1286.03 -455.954,-1783.35c-415.402,-464.913 -1052.57,-643.05 -1638.69,-420.298c-600.41,228.397 -1020.08,778.07 -1320.43,1313.65c-398.829,711.446 -692.648,1489.59 -878.582,2282.61c-92.434,393.244 -114.462,815.803 -254.395,1196.08c-73.878,200.541 -188.765,404.51 -406.738,473.268c-256.678,80.706 -558.409,-13.27 -495.837,-322.067c72.224,-355.472 287.054,-669.071 345.389,-1036.5c52.273,-329.504 28.303,-670.148 -125.797,-975.251c-335.838,-663.704 -1103.26,-777.722 -1747.96,-516.934c-741.422,298.929 -1213.63,1014.51 -1458.04,1736.15c-283.182,838.522 -247.542,1743.8 -407.104,2607.08c-156.695,850.034 -544.976,1622.67 -1172.99,2204.56c-110.005,102.047 -243.266,175.383 -374.407,250.531c-42.907,24.388 -77.164,65.622 -96.85,113.736c-32.899,79.613 -25.339,178.42 51.296,249.084c9.014,8.891 18.984,17.122 30.473,24.876c613.14,419.994 1173.13,905.172 1667.14,1455.77c448.889,499.942 805.988,1095.3 1339.38,1516.72c658.584,520.607 1910.45,655.427 2315.19,-244.4" style="fill:#6500c3;fill-rule:nonzero;"/></g><g><path d="M15344.4,25655.8c-349.264,-545.669 -805.865,-972.743 -1324.04,-1362.3c-656.984,111.967 -1320.61,189.803 -1998.43,219.774c-1.464,-0.135 -3.031,0.261 -4.469,0.012c-76.594,-70.608 -84.153,-169.419 -51.296,-249.083c70.932,-2.175 141.112,-4.491 210.554,-7.645c1555.3,-65.82 3048.67,-407.493 4547.46,-784.17c552.497,-138.893 1103.28,-280.85 1652.25,-430.503c2.456,-6.236 5.654,-12.295 9.575,-18.279c345.817,-519.274 465.175,-1114.96 609.169,-1710.24c123.691,-514.289 247.622,-1025.58 405.545,-1529.08c11.873,-36.919 69.286,-15.668 64.416,19.493c-87.454,626.686 -218.287,1247.57 -358.416,1865.53c-102.822,453.896 -224.497,894.44 -454.116,1296.59c595.697,-165.427 1187.89,-341.698 1774.53,-534.962c388.653,-127.818 774.944,-264.113 1157.82,-411.936c20.416,-20.088 49.47,-32.886 79.993,-31.463c2012.3,-784.66 3905.39,-1867.74 5312.28,-3508.17c49.557,-57.109 141.965,17.573 92.958,75.58c-912.998,1072.26 -2042.91,1932.67 -3287.21,2610.51c-631.641,344.259 -1285.26,643.081 -1952.18,911.839c820.631,535.089 1709.74,983.845 2633.3,1315.11c70.217,25.592 21.653,123.937 -46.915,101.551c-1000.73,-322.011 -1928.22,-755.956 -2808.36,-1327.21c-1686.3,658.887 -3456.16,1126.44 -5204.08,1593.1c-698.93,186.477 -1396.17,353.378 -2100.3,483.902c464.511,367.466 836.378,842.096 1131.18,1347.99c35.368,60.881 -51.451,125.679 -91.208,64.089" style="fill:#f9ff21;fill-rule:nonzero;"/></g></g></g></svg>