<?xml version="1.0" encoding="UTF-8" standalone="no"?><!DOCTYPE svg PUBLIC "-//W3C//DTD SVG 1.1//EN" "http://www.w3.org/Graphics/SVG/1.1/DTD/svg11.dtd"><svg width="100%" height="100%" viewBox="0 0 11867 6388" version="1.1" xmlns="http://www.w3.org/2000/svg" xmlns:xlink="http://www.w3.org/1999/xlink" xml:space="preserve" xmlns:serif="http://www.serif.com/" style="fill-rule:evenodd;clip-rule:evenodd;stroke-linejoin:round;stroke-miterlimit:2;"><g id="Artboard1"><rect x="0" y="0" width="11862.6" height="6384.29" style="fill:none;"/><g><g><g><path d="M8775.59,7286.25c-202.782,-497.544 -267.053,-972.176 -235.521,-1416.89c12.137,18.078 25.318,35.494 36.709,53.94c156.543,255.443 340.026,357.033 335.987,348.961c-180.914,-365.592 -244.382,-522.539 -308.676,-846.616c24.763,-113.415 55.485,-224.47 91.075,-333.075c21.597,39.975 40.376,81.638 60.37,120.859c43.238,84.641 91.753,168.773 169.004,226.988c5.712,4.354 15.003,-0.319 14.922,-7.476c-1.832,-232.875 -70.562,-460.028 -109.938,-689.037c289.707,-652.478 746.532,-1200.04 1165.23,-1607.43c13.954,93.063 43.956,184.487 91.406,261.963c4.046,6.837 14.928,7.195 17.737,-1.255c50.572,-154.379 83.905,-313.854 128.177,-470.107c1.468,-5.028 2.86,-9.861 4.312,-14.87c412.039,-365.193 739.207,-570.862 749.296,-577.314l0.237,-0.116c-281.015,893.544 -329.507,1762.31 -394.587,2416.95c-169.325,196.078 -372.971,362.241 -541.372,560.463c-3.916,4.403 -0.77,13.406 4.969,14.491c91.709,18.986 186.387,-2.975 273.813,-31.247c69.793,-22.502 137.514,-50.967 204.309,-81.594c-9.769,56.446 -20.009,110.1 -31.792,160.389c-150.645,644.804 -465.775,1392.36 -1725.67,1912.01" style="fill:#fc8d93;fill-rule:nonzero;"/></g><g><path d="M8775.59,7286.25c-202.782,-497.544 -267.053,-972.176 -235.521,-1416.89c12.137,18.078 25.318,35.494 36.709,53.94c156.543,255.443 340.026,357.033 335.987,348.961c-180.914,-365.592 -244.382,-522.539 -308.676,-846.616c24.763,-113.415 55.485,-224.47 91.075,-333.075c21.597,39.975 40.376,81.638 60.37,120.859c43.238,84.641 91.753,168.773 169.004,226.988c5.712,4.354 15.003,-0.319 14.922,-7.476c-1.832,-232.875 -70.562,-460.028 -109.938,-689.037c289.707,-652.478 746.532,-1200.04 1165.23,-1607.43c13.954,93.063 43.956,184.487 91.406,261.963c4.046,6.837 14.928,7.195 17.737,-1.255c50.572,-154.379 83.905,-313.854 128.177,-470.107c1.468,-5.028 2.86,-9.861 4.312,-14.87c412.039,-365.193 739.207,-570.862 749.296,-577.314c-15.521,16.667 -1113.21,1201.72 -2210.09,4951.35" style="fill:#fe6869;fill-rule:nonzero;"/></g><g><path d="M10607.8,3271.54c-24.015,33.811 -47.882,74.474 -56.685,115.513c-8.952,41.764 47.256,59.8 68.284,24.824c19.829,-33.03 30.839,-77.926 35.935,-115.749c3.284,-24.137 -29.868,-49.444 -47.534,-24.588" style="fill:#fe6869;fill-rule:nonzero;"/></g><g><path d="M10116.3,4648.95c-13.669,29.81 -33.043,62.54 -38.898,94.956c-7.076,39.019 50.392,63.967 67.937,24.731c13.808,-30.934 16.835,-67.791 22.513,-100.932c5.103,-29.626 -37.947,-48.532 -51.552,-18.755" style="fill:#fe6869;fill-rule:nonzero;"/></g><g><path d="M10079.2,6011.36c-16.889,15.38 -28.575,36.426 -38.614,56.677c-11.978,24.224 -23.994,46.991 -8.324,72.435c9.71,15.783 30.044,17.788 45.148,9.45c22.309,-12.349 22.665,-36.077 27.768,-58.392c4.532,-19.835 11.377,-39.318 13.854,-59.571c2.904,-23.544 -22.262,-36.604 -39.832,-20.599" style="fill:#fe6869;fill-rule:nonzero;"/></g><g><path d="M9520.38,4976.02c-256.318,638.547 -657.646,1155.16 -1085.03,1536.13c-185.252,-364.749 -327.613,-694.017 -425.112,-1005.69c111.232,47.418 256.298,66.56 251.87,60.089c-109.805,-157.871 -200.69,-263.64 -342.723,-407.656c-135.462,-648.644 -57.108,-1247.65 263.004,-1976.97c39.761,53.108 85.349,101.804 132.702,147.196c99.15,94.854 210.762,178.931 330.736,246.058c6.482,3.429 14.476,-0.762 14.775,-8.321c1.501,-98.585 -41.58,-184.954 -70.921,-276.706c-35.592,-110.995 -64.029,-224.573 -100.008,-335.687c-25.275,-78.972 -51.411,-157.778 -73.799,-237.746c680.231,-1080.94 785.313,-1593.16 785.313,-1593.16c0,0 -0.042,0.193 0.091,0.43c161.842,327.073 287.041,643.088 380.909,947.515c-4.956,23.525 -9.753,47.076 -14.92,70.542c-20.369,94.299 -49.61,182.907 -86.732,271.72c-71.646,171.933 -166.226,334.031 -212.711,515.808c-1.829,6.506 3.01,11.478 9.235,12.209c65.401,8.086 120.244,-51.474 160.307,-94.874c67.02,-72.218 136.652,-140.881 207.012,-209.929c22.193,-21.904 44.21,-43.868 65.841,-65.918c113.231,554.466 119.21,1066.03 48.351,1531.39c-75.774,94.855 -157.778,184.739 -228.818,283.545c-3.564,4.838 -0.295,13.174 5.651,14.231c61.555,11.808 123.071,-13.529 177.05,-48.414c-16.446,75.12 -34.874,148.862 -55.217,221.501c-176.179,186.635 -409.259,319.788 -583.548,512.569c-4.644,5.135 -3.444,14.497 4.1,16.221c96.333,21.761 195.761,-8.434 284.182,-45.952c54.643,-23.045 107.091,-50.344 158.405,-80.141" style="fill:#fc8d93;fill-rule:nonzero;"/></g><g><path d="M8262.11,5566.56c-109.804,-157.854 -200.69,-263.639 -342.722,-407.639c-135.463,-648.643 -57.109,-1247.66 263.002,-1976.99c39.761,53.108 85.35,101.805 132.702,147.196c99.15,94.855 210.762,178.932 330.736,246.058c6.482,3.429 14.477,-0.762 14.775,-8.321c1.501,-98.584 -41.579,-184.936 -70.921,-276.706c-35.609,-110.994 -64.029,-224.573 -100.007,-335.67c-25.276,-78.988 -51.412,-157.795 -73.799,-237.763c680.231,-1080.94 785.313,-1593.16 785.313,-1593.16c-0,0 -0.043,0.194 0.073,0.431c-0.596,37.995 -103.856,3043.15 -765.928,5388.16c-185.235,-364.75 -327.596,-694.018 -425.095,-1005.69c111.232,47.418 256.298,66.56 251.871,60.089" style="fill:#f3a3a3;fill-rule:nonzero;"/></g><g><path d="M9544.2,3250.97c-20.485,48.333 -32.046,98.072 -35.731,150.419c-3.474,49.416 74.965,45.902 77.571,-3.898c2.356,-45.305 4.387,-90.607 6.885,-135.917c1.418,-25.447 -39.016,-33.508 -48.725,-10.604" style="fill:#fe6869;fill-rule:nonzero;"/></g><g><path d="M9588.43,3472.15c-8.333,34.159 -24.136,65.998 -29.05,101.08c-2.967,21.235 8.044,42.515 30.158,47.42c19.635,4.351 44.458,-8.802 47.402,-30.157c5.305,-38.388 -0.924,-75.9 0.527,-114.198c1.061,-28.718 -42.624,-30.489 -49.037,-4.145" style="fill:#fe6869;fill-rule:nonzero;"/></g><g><path d="M1924.14,6527.1c-370.231,579.982 -860.326,1013.27 -1350.94,1308.43c-114.416,-392.78 -193.305,-742.703 -231.347,-1067.04c100.527,67.216 239.519,112.893 236.379,105.732c-78.653,-175.496 -148.355,-296.287 -261.231,-464.103c-12.897,-662.531 175.107,-1236.64 624.84,-1894c29.237,59.547 65.004,115.863 103.11,169.246c79.877,111.57 173.976,214.883 279.415,303.077c5.739,4.561 14.368,1.921 16.067,-5.431c19.749,-96.597 -6.588,-189.456 -18.409,-285.06c-14.427,-115.655 -21.302,-232.559 -36.068,-348.388c-10.196,-82.283 -21.281,-164.591 -28.457,-247.322c868.802,-936.151 1066.99,-1419.99 1066.99,-1419.99c0,-0 -0.096,0.161 -0.014,0.418c98.433,351.41 162.883,685.162 198.726,1001.72c-9.247,22.175 -18.316,44.446 -27.742,66.526c-37.5,88.902 -82.647,170.573 -135.595,250.95c-102.256,155.668 -225.252,297.429 -304.625,467.455c-2.998,6.06 0.838,11.848 6.808,13.721c62.804,20.071 127.718,-28.295 175.126,-63.529c79.232,-58.524 160.383,-113.112 242.338,-167.949c25.862,-17.394 51.562,-34.885 76.907,-52.549c8.513,565.84 -80.425,1069.65 -236.308,1513.82c-92.033,79.174 -189.27,152.317 -277.414,236.234c-4.384,4.079 -2.708,12.877 2.927,15.028c58.293,23.01 123.444,9.501 182.944,-14.779c-30.066,70.78 -61.852,139.856 -95.294,207.451c-207.722,150.741 -461.443,238.395 -668.426,395.548c-5.527,4.171 -6.097,13.604 1.011,16.689c90.622,39.222 193.938,27.97 287.771,7.529c57.986,-12.54 114.561,-29.634 170.515,-49.425" style="fill:#fc8d93;fill-rule:nonzero;"/></g><g><path d="M578.227,6874.22c-78.67,-175.496 -148.371,-296.286 -261.231,-464.104c-12.914,-662.53 175.108,-1236.63 624.84,-1894c29.22,59.548 65.004,115.863 103.11,169.246c79.86,111.571 173.976,214.882 279.415,303.076c5.74,4.562 14.351,1.922 16.068,-5.43c19.748,-96.598 -6.589,-189.457 -18.427,-285.06c-14.409,-115.656 -21.285,-232.559 -36.05,-348.388c-10.214,-82.283 -21.281,-164.592 -28.458,-247.322c868.803,-936.151 1066.99,-1419.99 1066.99,-1419.99c-0,0 -0.097,0.162 -0.014,0.418c-7.623,37.217 -666.071,2971.19 -1751.27,5152.86c-114.433,-392.779 -193.306,-742.703 -231.347,-1067.04c100.527,67.216 239.519,112.893 236.378,105.732" style="fill:#fe6869;fill-rule:nonzero;"/></g><g><path d="M1836.1,5510.13c-18.31,25.864 -30.815,59.328 -40.004,89.601c-6.131,20.194 10.172,42.304 29.666,46.627c21.481,4.763 41.013,-9.238 46.61,-29.665c7.451,-27.144 14.537,-60.858 12.95,-89.025c-1.257,-22.274 -34.386,-38.499 -49.222,-17.538" style="fill:#fe6869;fill-rule:nonzero;"/></g><g><path d="M1986.23,5405.96c-24.985,36.511 -58.235,75.161 -71.069,117.97c-10.001,33.393 41.354,61.757 62.228,32.151c27.057,-38.336 37.672,-90.111 51.696,-134.519c8.532,-27.045 -29.478,-35.145 -42.855,-15.602" style="fill:#fe6869;fill-rule:nonzero;"/></g><g><path d="M8543.37,6682.15c-515.107,-152.712 -925.802,-399.19 -1253.22,-701.763c21.703,1.817 43.513,2.418 65.058,5.055c297.214,37.472 491.227,-42.268 482.41,-44.145c-398.479,-87.293 -560.662,-135.854 -853.821,-288.212c-73.064,-90.23 -140.541,-183.611 -203.059,-279.293c44.694,8.133 88.965,19.528 132.082,28.427c93.107,19.13 189.085,33.87 282.836,9.935c6.926,-1.725 9.097,-11.896 3.474,-16.298c-182.927,-144.133 -403.182,-232.467 -606.578,-344.873c-328.251,-633.972 -470.122,-1332.82 -526.432,-1914.27c81.37,47.251 171.487,80.992 261.617,92.373c7.875,1.124 14.956,-7.147 10.108,-14.608c-88.881,-135.983 -192.545,-261.677 -286.838,-393.906c-3.011,-4.272 -5.906,-8.388 -8.917,-12.66c-27.511,-549.892 16.416,-933.83 17.707,-945.734l0.044,-0.254c521.845,777.847 1169.7,1358.72 1640.01,1818.69c47.228,254.741 49.675,517.573 99.121,772.918c1.005,5.816 9.974,8.988 14.424,5.171c72.155,-59.704 114.18,-147.359 146.747,-233.256c26.07,-68.548 46.173,-139.201 64,-210.483c37.983,42.909 73.454,84.437 105.336,125.071c409.179,520.636 795.735,1233.86 413.886,2542.12" style="fill:#fc8d93;fill-rule:nonzero;"/></g><g><path d="M8543.37,6682.15c-515.107,-152.712 -925.802,-399.191 -1253.22,-701.763c21.703,1.817 43.512,2.417 65.057,5.054c297.215,37.472 491.227,-42.267 482.411,-44.144c-398.479,-87.293 -560.662,-135.854 -853.822,-288.212c-73.064,-90.23 -140.54,-183.611 -203.059,-279.293c44.694,8.133 88.965,19.528 132.082,28.427c93.107,19.13 189.085,33.87 282.837,9.935c6.925,-1.726 9.097,-11.897 3.473,-16.299c-182.926,-144.133 -403.181,-232.466 -606.578,-344.873c-328.251,-633.971 -470.122,-1332.82 -526.431,-1914.27c81.37,47.251 171.487,80.992 261.616,92.373c7.876,1.123 14.956,-7.147 10.108,-14.608c-88.88,-135.983 -192.544,-261.677 -286.837,-393.907c-3.011,-4.271 -5.907,-8.387 -8.918,-12.659c-27.51,-549.892 16.417,-933.83 17.707,-945.734c3.294,22.528 242.242,1620.1 2483.57,4819.97" style="fill:#fe6869;fill-rule:nonzero;"/></g><g><path d="M7147.76,3489.48c-15.06,-24.548 -39.028,-42.129 -58.362,-63.472c-18.258,-20.119 -34.062,-44.485 -56.765,-59.942c-19.789,-13.476 -40.24,3.976 -39.405,24.921c1.243,30.847 20.846,59.56 38.034,83.987c18.227,25.85 39.57,53.011 68.746,66.363c28.64,13.11 65.06,-23.681 47.752,-51.857" style="fill:#fe6869;fill-rule:nonzero;"/></g><g><path d="M7267.1,3472.56c-17.836,-18.289 -34.204,-40.108 -56.111,-53.712c-16.579,-10.296 -34.723,2.565 -33.371,21.095c2.142,28.911 19.442,54.904 35.47,78.122c16.75,24.237 37.593,51.257 67.871,56.208c20.237,3.321 39.817,-18.157 35.255,-37.929c-6.268,-27.194 -30.232,-44.442 -49.114,-63.784" style="fill:#fe6869;fill-rule:nonzero;"/></g><g><path d="M7372.17,3742.14c-10.286,-13.234 -22.698,-25.113 -35.257,-36.209c-11.019,-9.725 -24.068,-21.212 -38.434,-25.125c-17.253,-4.718 -31.171,7.113 -29.901,24.759c1.082,14.824 9.915,30.458 17.479,43.034c8.64,14.416 17.977,28.994 28.976,41.664c31.588,36.385 86.65,-10.181 57.137,-48.123" style="fill:#fe6869;fill-rule:nonzero;"/></g><g><path d="M8187.39,5498.04c-11.284,-10.136 -22.296,-20.742 -32.245,-32.237c-10.634,-12.292 -17.816,-27.243 -28.921,-38.996c-16.429,-17.386 -50.483,-10.639 -51.936,16.128c-2.52,46.79 30.641,94.831 64.789,123.603c17.321,14.59 46.15,7.283 58.405,-10.093c14.322,-20.304 6.801,-43.23 -10.092,-58.405" style="fill:#fe6869;fill-rule:nonzero;"/></g></g></g></g></svg>