<?xml version="1.0" encoding="UTF-8" standalone="no"?><!DOCTYPE svg PUBLIC "-//W3C//DTD SVG 1.1//EN" "http://www.w3.org/Graphics/SVG/1.1/DTD/svg11.dtd"><svg width="100%" height="100%" viewBox="0 0 3850 1980" version="1.1" xmlns="http://www.w3.org/2000/svg" xmlns:xlink="http://www.w3.org/1999/xlink" xml:space="preserve" xmlns:serif="http://www.serif.com/" style="fill-rule:evenodd;clip-rule:evenodd;stroke-linejoin:round;stroke-miterlimit:2;"><g id="Artboard1"><rect x="0" y="0.002" width="3847.97" height="1975.8" style="fill:none;"/><g><g><g><g><path d="M3150.94,975.597c163.407,81.961 309.246,195.124 428.121,334.14c127.695,149.332 221.953,326.194 275.181,515.318c31.021,110.232 48.349,224.066 51.459,338.53c0.352,12.813 -19.582,14.436 -19.926,1.545c-10.362,-388.663 -188.933,-759.083 -484.995,-1010.57c-77.85,-66.123 -163.038,-123.952 -253.606,-171.207c-4.907,-2.56 -1.219,-10.259 3.766,-7.758" style="fill:#f9aa4d;fill-rule:nonzero;"/></g><g><path d="M2845.47,769.133c0,-0 273.108,-17.714 315.659,219.715c-230.445,41.296 -315.659,-219.715 -315.659,-219.715" style="fill:#f9aa4d;fill-rule:nonzero;"/></g><g><path d="M3245.18,643.855c-0,-0 165.799,217.746 -8.474,384.508c-161.858,-169.154 8.474,-384.508 8.474,-384.508" style="fill:#f9aa4d;fill-rule:nonzero;"/></g><g><path d="M2888.17,1198.69c-0,-0 267.549,57.615 344.498,-170.994c-221.887,-74.68 -344.498,170.994 -344.498,170.994" style="fill:#f9aa4d;fill-rule:nonzero;"/></g><g><path d="M3050.83,1311.53c0,0 267.549,57.615 344.499,-170.994c-221.888,-74.679 -344.499,170.994 -344.499,170.994" style="fill:#f9aa4d;fill-rule:nonzero;"/></g><g><path d="M3187.28,1412.74c-0,-0 260.649,83.449 359.541,-136.561c-213.542,-95.975 -359.541,136.561 -359.541,136.561" style="fill:#f9aa4d;fill-rule:nonzero;"/></g></g><g><g><path d="M784.818,850.13c-163.788,81.409 -313.26,197.956 -438.952,344.261c-135.009,157.163 -240.155,346.26 -306.878,550.934c-38.893,119.297 -64.913,243.264 -77.331,368.659c-1.393,14.036 17.636,16.847 19.023,2.73c41.956,-425.779 244.07,-822.803 549.299,-1083.27c80.256,-68.484 166.89,-127.487 257.814,-174.615c4.927,-2.552 2.021,-11.188 -2.975,-8.704" style="fill:#f9aa4d;fill-rule:nonzero;"/></g><g><path d="M1095.38,639.538c-0,0 -261.008,-33.621 -321.448,224.596c218.066,57.272 321.448,-224.596 321.448,-224.596" style="fill:#f9aa4d;fill-rule:nonzero;"/></g><g><path d="M721.564,481.355c-0,-0 -177.27,230.223 -23.517,422.195c169.482,-177.128 23.517,-422.195 23.517,-422.195" style="fill:#f9aa4d;fill-rule:nonzero;"/></g><g><path d="M557.121,595.412c-0,-0 -177.269,230.218 -23.516,422.19c169.481,-177.128 23.516,-422.19 23.516,-422.19" style="fill:#f9aa4d;fill-rule:nonzero;"/></g><g><path d="M399.234,744.813c0,-0 -177.269,230.223 -23.512,422.196c169.477,-177.129 23.512,-422.196 23.512,-422.196" style="fill:#f9aa4d;fill-rule:nonzero;"/></g><g><path d="M222.407,919.401c-0,-0 -154.224,250.428 18.141,420.73c151.677,-196.901 -18.141,-420.73 -18.141,-420.73" style="fill:#f9aa4d;fill-rule:nonzero;"/></g><g><path d="M48.238,1146.39c0,-0 -120.317,272.527 73.547,410.453c124.85,-219.476 -73.547,-410.453 -73.547,-410.453" style="fill:#f9aa4d;fill-rule:nonzero;"/></g><g><path d="M1018.98,1108.49c-0,-0 -261.872,49.292 -316.997,-205.46c219.385,-70.385 316.997,205.46 316.997,205.46" style="fill:#f9aa4d;fill-rule:nonzero;"/></g><g><path d="M853.372,1223.81c-0,0 -261.872,49.292 -316.997,-205.46c219.385,-70.385 316.997,205.46 316.997,205.46" style="fill:#f9aa4d;fill-rule:nonzero;"/></g><g><path d="M713.899,1327.74c0,-0 -257.363,77.989 -334.283,-168.472c213.117,-94.177 334.283,168.472 334.283,168.472" style="fill:#f9aa4d;fill-rule:nonzero;"/></g><g><path d="M594.666,1479.84c0,0 -252.33,99.189 -345.237,-139.44c207.029,-111.568 345.237,139.44 345.237,139.44" style="fill:#f9aa4d;fill-rule:nonzero;"/></g><g><path d="M482.682,1640.06c-0,0 -240.354,134.622 -359.755,-87.363c193.808,-140.249 359.755,87.363 359.755,87.363" style="fill:#f9aa4d;fill-rule:nonzero;"/></g><g><path d="M403.528,1803.82c0,0 -221.591,172.835 -369.178,-25.376c174.567,-170.536 369.178,25.376 369.178,25.376" style="fill:#f9aa4d;fill-rule:nonzero;"/></g></g><g><g><path d="M3666.59,942.368c11.596,196.789 54.303,391.939 126.946,573.815c78.034,195.363 189.518,372.061 324.653,515.363c78.764,83.523 165.03,155.652 256.56,214.457c10.244,6.581 18.223,-11.756 7.918,-18.373c-310.858,-199.455 -550.658,-551.449 -654.96,-958.218c-27.42,-106.954 -45.679,-216.916 -53.583,-326.873c-0.425,-5.96 -7.886,-6.171 -7.534,-0.171" style="fill:#f9aa4d;fill-rule:nonzero;"/></g><g><path d="M3601.85,548.52c0,-0 -105.723,253.479 72.044,410.083c110.523,-201.028 -72.044,-410.083 -72.044,-410.083" style="fill:#f9aa4d;fill-rule:nonzero;"/></g><g><path d="M3366.77,871.061c-0,0 120.604,265.297 313.791,179.347c-82.627,-237.824 -313.791,-179.347 -313.791,-179.347" style="fill:#f9aa4d;fill-rule:nonzero;"/></g><g><path d="M3402.99,1080.54c-0,0 120.6,265.298 313.791,179.347c-82.627,-237.824 -313.791,-179.347 -313.791,-179.347" style="fill:#f9aa4d;fill-rule:nonzero;"/></g><g><path d="M3934.95,798.95c-0,-0 -42.945,284.874 -253.575,247.256c13.862,-249.367 253.575,-247.256 253.575,-247.256" style="fill:#f9aa4d;fill-rule:nonzero;"/></g><g><path d="M3971.78,1010.08c0,0 -42.945,284.874 -253.574,247.256c13.857,-249.366 253.574,-247.256 253.574,-247.256" style="fill:#f9aa4d;fill-rule:nonzero;"/></g></g></g></g></g></svg>