<?xml version="1.0" encoding="UTF-8" standalone="no"?><!DOCTYPE svg PUBLIC "-//W3C//DTD SVG 1.1//EN" "http://www.w3.org/Graphics/SVG/1.1/DTD/svg11.dtd"><svg width="100%" height="100%" viewBox="0 0 18525 8684" version="1.1" xmlns="http://www.w3.org/2000/svg" xmlns:xlink="http://www.w3.org/1999/xlink" xml:space="preserve" xmlns:serif="http://www.serif.com/" style="fill-rule:evenodd;clip-rule:evenodd;stroke-linejoin:round;stroke-miterlimit:2;"><g><g><g><path d="M14487.9,6220.19c-92.844,33.224 -139.09,119.721 -171.441,206.765c-32.265,86.559 -89.577,299.202 -220.638,176.388c-121.8,-114.269 -26.467,-353.121 -10.193,-495.292c18.383,-161.133 25.17,-329.64 4.532,-491.067c-33.057,-257.46 -212.03,-489.834 -445.097,-488.989c-461.124,1.607 -460.388,447.095 -459.504,568.582c-0.061,14.592 -0.888,29.292 -2.769,43.661c-5.938,46.48 -14.287,56.664 -67.652,38.631c-88.518,-29.63 -122.379,-127.347 -147.655,-207.745c-37.48,-118.63 -80.581,-226.38 -160.907,-323.041c-146.869,-176.903 -373.883,-289.047 -603.483,-298.164c-115.758,-4.543 -272.647,8.921 -357.7,96.873c-82.147,84.891 -63.297,215.919 -5.455,308.684c77.859,125.139 218.211,166.939 341.479,233.15c136.392,73.377 219.11,195.192 222.132,343.02c-336.72,-142.769 -664.071,-355.486 -1043.46,-328.619c-299.215,21.124 -571.484,207.991 -586.093,527.226c-5.853,125.478 34.638,257.615 130.877,342.46c130.872,115.161 312.485,107.617 475,93.417c224.906,-19.678 449.723,-40.747 674.436,-61.349c112.47,-10.291 224.85,-20.713 337.347,-31.002c102.412,-9.243 229.548,-31.295 322.94,24.915c39.862,24.205 82.119,74.149 82.054,123.326c0.082,58.544 -45.875,91.286 -92.169,118.349c-89.237,52.247 -191.559,80.619 -290.882,106.31c-177.562,45.866 -364.061,81.222 -519.445,184.341c-128.358,85.119 -221.558,213.902 -235.683,370.2c-12.912,146.408 60.334,282.958 194.988,344.881c137.982,63.445 302.281,43.612 444.614,5.981c189.056,-49.999 372.509,-128.612 540.919,-227.827c83.544,-49.187 160.692,-115.028 249.753,-154.075c46.962,-20.551 101.244,-34.795 148.884,-9.439c56.051,29.887 89.058,96.143 25.099,136.422c-73.666,46.36 -163.398,61.831 -236.864,112.481c-65.895,45.43 -121.253,105.525 -149.104,181.663c-60.546,165.736 45.211,313.627 196.05,379.175c173.339,75.553 375.087,37.239 540.643,-40.422c192.23,-90.357 343.914,-245.331 520.273,-360.573c173.506,-113.507 371.476,-175.346 575.471,-165.445c35.773,1.699 70.306,12.053 104.856,21.762c11.252,3.204 24.048,2.186 35.632,-2.425c19.25,-7.557 35.209,-25.119 34.973,-49.628c0.044,-2.961 -0.157,-6.006 -0.692,-9.225c-27.236,-172.254 -34.424,-346.349 -19.477,-520.078c13.527,-157.783 58.705,-315.875 44.76,-474.957c-17.19,-196.493 -198.554,-429.304 -421.348,-349.298" style="fill:#fbfec7;fill-rule:nonzero;"/></g><g><path d="M14539.1,6825.97c-37.782,148.564 -37.368,295.678 -20.383,446.971c126.997,92.108 249.099,190.945 365.248,300.042c0.196,0.285 0.521,0.485 0.718,0.77c0.24,24.507 -15.716,42.046 -34.956,49.617c-11.98,-11.564 -23.858,-22.986 -35.785,-34.162c-265.935,-250.844 -569.703,-445.871 -880.513,-636.064c-114.54,-70.097 -229.367,-139.384 -345.218,-207.125c-1.483,0.602 -3.078,1.07 -4.76,1.384c-146.92,27.276 -270.116,105.232 -397.233,178.974c-109.717,63.835 -218.969,127.118 -332.421,183.427c-8.35,4.067 -14.044,-9.088 -7.154,-14.047c123.348,-88.416 252.784,-168.61 383.239,-246.717c95.802,-57.406 192.362,-109.427 299.902,-136.963c-126.251,-73.011 -253.8,-143.654 -383.422,-210.544c-85.848,-44.351 -172.761,-86.914 -261.127,-126.998c-6.841,-0.137 -13.805,-2.927 -18.572,-8.285c-465.765,-209.439 -963.974,-349.702 -1479.6,-316.423c-18.045,1.053 -20.166,-26.798 -2.08,-28.092c335.971,-22.867 670.567,25.649 992.084,123.456c163.269,49.599 322.205,110.404 478.089,178.381c-41.186,-226.131 -108.576,-449.586 -202.047,-659.487c-7.039,-16.024 18.01,-24.037 25.326,-8.837c107.723,221.397 183.99,448.854 228.604,690.967c390.542,175.265 761.472,396.107 1128.68,613.393c146.792,86.897 289.92,176.739 427.873,273.733c-12.084,-138.649 9.644,-279.308 49.42,-412.166c4.807,-15.966 30.296,-12.03 26.079,4.795" style="fill:#242e6b;fill-rule:nonzero;"/></g></g><g><g><path d="M4113.11,8433.69c11.866,-97.902 -44.747,-177.976 -108.082,-245.884c-62.94,-67.628 -227.392,-214.1 -58.872,-276.277c156.705,-57.713 327.557,134.503 447.386,212.712c135.838,88.618 283.464,170.161 437.047,224.028c244.991,85.737 532.898,29.826 636.54,-178.932c205.105,-413.01 -193.535,-611.897 -302.56,-665.507c-13.015,-6.593 -25.782,-13.941 -37.794,-22.058c-38.894,-26.106 -44.259,-38.159 -4.231,-77.78c66.148,-65.866 168.658,-52.378 251.88,-38.953c122.834,19.595 238.5,29.332 360.903,0.793c223.947,-52.06 425.887,-204.812 536.878,-406.008c55.913,-101.438 114.134,-247.746 73.606,-363.206c-39.117,-111.452 -164.725,-153.287 -273.566,-143.111c-146.76,13.526 -246.976,120.318 -361.39,200.865c-126.71,89.099 -272.649,108.485 -406.185,44.973c278.469,-237.105 615.269,-434.535 761.189,-785.775c115.124,-276.966 69.98,-604.088 -208.867,-760.136c-109.583,-61.44 -245.859,-84.417 -364.839,-36.368c-161.561,65.406 -236.169,231.171 -296.272,382.83c-83.139,209.91 -164.978,420.346 -247.213,630.497c-41.18,105.171 -82.191,210.304 -123.381,315.489c-37.612,95.713 -74.828,219.268 -166.926,277.572c-39.495,24.817 -103.057,40.194 -146.998,18.124c-52.395,-26.12 -61.1,-81.881 -64.552,-135.392c-6.744,-103.195 13.729,-207.382 35.253,-307.701c38.516,-179.299 90.437,-361.872 67.83,-546.992c-18.61,-152.891 -92.017,-293.904 -225.432,-376.542c-125.109,-77.129 -279.983,-72.776 -395.689,19.871c-118.513,94.955 -174.355,250.751 -204.481,394.853c-39.984,191.409 -51.859,390.663 -38.57,585.672c6.538,96.719 30.856,195.165 25.87,292.279c-2.648,51.22 -14.233,106.135 -58.238,137.361c-51.837,36.711 -125.843,36.567 -133.217,-38.672c-8.445,-86.625 17.911,-173.765 5.531,-262.147c-11.111,-79.256 -40.05,-155.658 -95.641,-214.681c-121.068,-128.351 -300.643,-100.058 -426.822,5.465c-145.178,121.129 -201.291,318.692 -206.025,501.485c-5.317,212.342 65.312,417.375 89.364,626.624c23.777,206.009 -9.612,410.7 -109.834,588.66c-17.547,31.2 -42.284,57.467 -66.421,83.999c-7.911,8.635 -12.721,20.519 -13.795,32.947c-1.85,20.587 6.68,42.705 28.715,53.471c2.632,1.399 5.432,2.579 8.539,3.542c166.237,52.804 325.096,124.323 473.721,215.523c135.025,82.785 256.119,193.958 404.613,252.745c183.367,72.649 472.76,14.762 501.028,-220.258" style="fill:#6500c3;fill-rule:nonzero;"/></g><g><path d="M3548.58,8208.14c-115.902,-100.336 -247.609,-165.867 -390.495,-218.428c-139.228,72.273 -282.305,137.192 -431.869,192.143c-0.337,0.073 -0.66,0.275 -0.999,0.32c-22.022,-10.756 -30.552,-32.875 -28.715,-53.471c15.718,-5.53 31.258,-11.039 46.575,-16.688c343.388,-125.412 653.831,-309.679 963.063,-502.356c113.989,-71.035 227.382,-142.651 339.837,-215.903c0.118,-1.604 0.414,-3.22 0.877,-4.87c41.425,-143.588 26.899,-288.632 17.912,-435.332c-7.923,-126.689 -15.585,-252.708 -15.103,-379.351c0.101,-9.307 14.416,-8.507 15.76,-0.1c23.809,149.889 37.512,301.525 48.933,453.15c8.412,111.362 11.682,221 -11.854,329.491c121.817,-80.183 242.1,-162.604 359.964,-248.527c78.101,-56.874 155.087,-115.524 230.511,-176.575c3.177,-6.054 8.791,-11.049 15.718,-12.888c395.875,-322.643 744.426,-705.251 945.633,-1181.16c7.134,-16.609 32.976,-6.041 26.027,10.735c-130.039,310.607 -323.266,588.029 -554.721,831.703c-117.481,123.735 -243.023,238.611 -373.623,347.538c220.622,64.475 450.589,104.298 680.129,114.741c17.48,0.887 13.422,26.88 -3.467,26.611c-246.165,-2.846 -483.692,-36.551 -720.13,-105.098c-331.649,270.682 -695.232,503.422 -1053.97,734.401c-143.455,92.332 -287.887,180.056 -436.378,259.928c129.351,51.303 245.393,133.748 346.359,228.826c12.126,11.45 -2.812,32.465 -15.969,21.164" style="fill:#f9ff21;fill-rule:nonzero;"/></g></g></g></svg>