<?xml version="1.0" encoding="UTF-8" standalone="no"?><!DOCTYPE svg PUBLIC "-//W3C//DTD SVG 1.1//EN" "http://www.w3.org/Graphics/SVG/1.1/DTD/svg11.dtd"><svg width="100%" height="100%" viewBox="0 0 3096 1984" version="1.1" xmlns="http://www.w3.org/2000/svg" xmlns:xlink="http://www.w3.org/1999/xlink" xml:space="preserve" xmlns:serif="http://www.serif.com/" style="fill-rule:evenodd;clip-rule:evenodd;stroke-linejoin:round;stroke-miterlimit:2;"><g id="Artboard1"><g><g><g><g><path d="M1451.19,2012.56c-58.883,-68.858 -94.386,-141.407 -112.961,-214.257c2.905,2.249 5.937,4.336 8.738,6.686c38.626,32.564 73.389,39.075 72.316,38.001c-48.377,-48.902 -66.876,-70.649 -94.382,-119.103c-2.058,-19.467 -3.043,-38.87 -3.115,-58.146c5.576,5.249 10.797,10.924 16.078,16.138c11.424,11.249 23.652,22.138 39.114,27.353c1.138,0.388 2.38,-0.854 1.989,-1.993c-12.664,-37.176 -35.73,-69.875 -54.198,-104.441c11.706,-119.816 55.731,-231.718 101.1,-319.166c7.182,14.154 16.836,27.195 28.548,37.07c1.013,0.884 2.773,0.36 2.773,-1.141c-0.107,-27.394 -3.244,-54.686 -4.461,-82.047c-0.029,-0.88 -0.067,-1.732 -0.1,-2.609c46.547,-80.337 87.985,-130.637 89.255,-132.203l0.034,-0.033c2.49,157.94 40.882,299.563 65.24,407.79c-16.681,40.382 -40.45,77.791 -56.87,118.465c-0.393,0.908 0.586,2.184 1.561,2.05c15.692,-1.827 29.679,-10.374 42.165,-19.542c9.977,-7.31 19.299,-15.463 28.363,-23.913c1.442,9.554 2.648,18.683 3.435,27.356c10.142,111.205 -0.584,247.592 -174.622,397.685" style="fill:#131a35;fill-rule:nonzero;"/></g><g><path d="M1526.4,2099.14c70.11,-62.547 121.743,-134.221 159.277,-209.913c-3.111,1.824 -6.282,3.449 -9.343,5.406c-42.19,27.236 -73.292,26.795 -72.064,25.848c55.286,-42.992 77.349,-62.766 115.014,-109.81c7.596,-20.862 14.269,-41.881 20.141,-62.965c-6.257,4.533 -12.345,9.603 -18.347,14.164c-12.961,9.82 -26.496,19.077 -41.03,21.416c-1.065,0.179 -1.736,-1.45 -1.062,-2.609c21.825,-37.93 51.012,-68.701 76.913,-102.515c26.311,-133.702 23.15,-265.775 11.486,-371.373c-10.282,13.922 -22.315,26.099 -35.1,34.362c-1.119,0.743 -2.433,-0.213 -1.981,-1.854c8.342,-29.962 19.206,-59.158 28.477,-88.837c0.291,-0.958 0.576,-1.878 0.867,-2.836c-14.792,-98.078 -34.36,-162.158 -34.954,-164.148l-0.017,-0.044c-49.702,172.329 -124.576,318.989 -177.629,432.146c1.812,47.831 10.453,93.961 11.954,142.053c0.055,1.084 -1.152,2.265 -1.926,1.909c-12.597,-5.425 -21.743,-17.827 -29.449,-30.578c-6.157,-10.17 -11.509,-21.13 -16.562,-32.354c-4.086,10.141 -7.854,19.875 -11.128,29.197c-42.026,119.513 -74.16,271.133 26.463,473.335" style="fill:#131a35;fill-rule:nonzero;"/></g><g><path d="M1526.57,1674.53c-16.936,-62.647 -17.611,-120.5 -7.24,-173.345c1.187,2.345 2.509,4.634 3.604,7.011c14.977,32.943 35.468,47.841 35.104,46.811c-16.27,-46.505 -21.553,-66.262 -24.462,-106.066c4.653,-13.227 9.979,-26.088 15.862,-38.58c1.992,5.116 3.625,10.39 5.441,15.385c3.93,10.79 8.501,21.592 16.902,29.718c0.616,0.607 1.797,0.181 1.896,-0.679c3.23,-27.943 -1.645,-56.191 -2.967,-84.228c44.395,-73.926 107.271,-132.799 163.504,-175.432c0.297,11.361 2.536,22.767 7.073,32.755c0.384,0.883 1.687,1.088 2.15,0.114c8.35,-17.756 14.705,-36.381 22.33,-54.458c0.251,-0.579 0.488,-1.138 0.734,-1.719c54.81,-37.67 97.08,-57.479 98.382,-58.104l0.031,-0.007c-46.929,102.953 -65.611,206.382 -83.117,283.895c-23.203,20.997 -50.078,37.896 -73.206,59.169c-0.532,0.468 -0.293,1.59 0.383,1.805c10.711,3.64 22.388,2.408 33.285,0.316c8.705,-1.666 17.241,-4.074 25.702,-6.76c-2.007,6.624 -4.029,12.907 -6.188,18.763c-27.617,75.062 -76.469,160.01 -235.203,203.636" style="fill:#253266;fill-rule:nonzero;"/></g><g><path d="M712.456,1349.42c9.553,13.485 19.282,25.443 27.007,38.717c25.179,38.506 57.491,79.383 56.03,124.098l-2.004,1.317c-18.626,0.944 -37.844,-9.015 -53.408,-18.551c-12.085,-7.587 -25.821,-16.912 -37.554,-27.553c-16.117,123.503 -43.374,247.268 -91.853,362.391c5.192,19.172 10.561,36.818 19.584,54.885c11.619,27.653 28.897,54.412 48.354,78.328c16.333,18.911 38.5,35.401 45.167,57.839c-0.177,1.528 -2.18,2.844 -2.18,2.844c-63.78,-8.915 -121.434,-38.79 -175.258,-69.77c-16.143,27.542 -35.94,54.662 -55.561,80.255l685.236,79.148c4.537,-7.215 11.078,-15.746 17.618,-24.277c5.179,-28.808 6.817,-75.051 6.212,-133.934c-25.583,-2.955 -54.467,-9.387 -77.339,-19.767c-1.828,-0.211 -3.479,-1.95 -1.475,-3.266c17.97,-27.331 47.85,-45.548 72.6,-67.453c-0.592,-10.902 -1.185,-21.805 -3.428,-34.445c-30.585,24.326 -64.472,45.175 -105.554,48.169c-1.828,-0.211 -3.479,-1.95 -3.302,-3.477c19.671,-58.089 62.745,-110.38 89.549,-166.097c-34.179,-185.031 -109.453,-415.05 -253.042,-646.769c-15.79,24.488 -35.412,50.08 -64.585,62.188c-1.828,-0.211 -3.655,-0.422 -3.478,-1.95c-17.757,-54.673 -7.399,-112.29 -4.702,-167.697c-49.414,-69.164 -106.312,-137.645 -170.697,-205.443c0,0 58.489,279.155 38.063,600.27Z" style="fill:url(#_Linear1);fill-rule:nonzero;"/></g><g><path d="M852.273,1248.85c-16.009,-110.748 -40.478,-220.31 -71.373,-327.825c-1.949,-6.78 -12.646,-4.63 -10.83,2.325c99.563,380.724 112.797,787.204 35.956,1173.27c-21.662,108.837 -51.513,215.217 -85.877,320.662c-4.592,14.076 16.84,21.309 21.759,7.37c131.567,-372.971 166.843,-785.113 110.365,-1175.8" style="fill:#5476ef;fill-rule:nonzero;"/></g><g><path d="M2774.78,731.409c12.742,8.604 24.981,15.755 36.27,24.862c34.818,25.365 75.95,50.171 93.447,91.297l-0.95,1.956c-13.522,7.937 -32.019,6.208 -47.61,3.472c-12.183,-2.29 -26.321,-5.529 -39.51,-10.724c39.301,118.183 70.388,240.839 82.028,363.72c10.397,15.925 23.195,29.391 37.447,42.353c20.176,20.673 31.912,26.372 56.39,40.674c20.063,10.95 57.34,38.718 55.887,39.221c-49.397,17.106 -93.096,22.477 -146.184,14.829c-1,39.396 -4.907,79.799 -12.222,119.755c73.661,62.354 154.246,93.021 221.976,105.362l1.33,-888.849c-84.283,-97.725 -185.106,-196.23 -304.314,-286.741c-1.617,28.22 -5.636,58.899 -22.397,80.975c-1.453,0.503 -2.906,1.006 -3.409,-0.447c-35.994,-42.856 -52.207,-99.07 -73.226,-150.366c-65.666,-43.97 -136.642,-84.474 -212.925,-121.513c0,0 159.741,231.047 277.972,530.164Z" style="fill:url(#_Linear2);fill-rule:nonzero;"/></g><g><path d="M2829.12,601.641c-65.908,-99.596 -139.446,-194.187 -218.246,-283.883c-4.966,-5.654 -14.312,1.296 -9.391,7.179c269.554,322.096 467.517,708.383 569.242,1116c28.683,114.913 48.346,231.192 63.213,348.617c1.987,15.675 25.962,12.891 24.358,-2.804c-42.942,-419.913 -196.667,-833.763 -429.176,-1185.11" style="fill:#5476ef;fill-rule:nonzero;"/></g></g></g></g><rect x="-0.001" y="0.002" width="3095.75" height="1979.5" style="fill:none;"/><path d="M1688.7,148.579c25.064,14.593 67.293,36.12 47.14,69.963c-7.704,13.132 -19.521,19.892 -5.921,30.884c11.722,9.582 24.411,18.336 36.132,27.918c6.725,5.31 13.862,11.104 21.111,16.635c12.509,9.914 23.829,21.181 35.965,31.248c-1.981,-12.891 -7.621,-25.162 -13.221,-36.798c-2.802,-5.818 -5.491,-11.898 -8.291,-17.716c-8.745,-18.836 -5.28,-34.374 2.319,-53.114c4.94,-12.443 11.455,-24.222 19.352,-36.344c3.817,-6.117 8.159,-12.013 12.723,-18.433c4.715,-6.047 9.833,-13.779 17.13,-19.354c-0.918,9.503 1.963,16.592 4.694,23.308c6.978,17.163 18.544,32.243 30.179,46.425c13.374,17.388 24.345,33.145 30.056,64.3c4.706,25.477 3.709,47.62 -4.344,65.241c-7.569,17.207 -21.144,30.334 -39.968,41.246c2.07,2.42 3.768,4.99 5.576,7.299c25.698,34.334 56.829,63.85 88.18,92.843c35.826,33.043 72.422,70.12 96.11,112.879c9.893,16.847 19.758,35.228 29.925,54.354c7.408,13.944 14.485,28.676 21.823,43.518c0.099,-2.432 0.46,-4.752 0.669,-7.446c2.223,-16.99 6.712,-36.423 11.534,-56.643c4.823,-20.221 9.936,-41.863 14.897,-63.88c4.933,-20.482 14.885,-66.048 19.638,-85.371c-9.077,1.734 -15.884,14.935 -23.596,20.027c-19.64,12.115 -49.561,11.235 -67.966,-3.021c-20.807,-15.889 -34.374,-34.286 -42.91,-55.814c-8.536,-21.53 -13.352,-46.744 -13.856,-76.32c13.132,7.704 25.191,10.628 36.601,11.423c11.299,1.06 21.468,0.404 31.041,0.424c19.52,-0.108 36.429,0.843 61.102,19.29c15.962,11.989 27.527,27.07 32.889,42.932c4.527,-12.927 9.176,-23.947 13.022,-31.597c4.401,-8.962 7.512,-14.14 7.512,-14.14c0.595,-0.677 9.045,-14.111 19.98,-24.643c3.124,-3.01 6.138,-5.756 9.193,-7.868c-4.113,-6.371 -8.831,-14.235 -14.781,-21.382c-6.281,-6.359 -9.753,-18.642 -11.65,-30.261c-3.948,-23.612 1.21,-50.491 16.032,-68.037c25.372,-30.096 50.148,-39.733 75.778,-44.065c19.203,-3.025 38.875,-2.761 58.244,-3.244c14.658,-0.307 38.995,5.016 52.69,-0.333c-13.432,5.46 -23.649,17.222 -29.71,30.12c-8.979,19.085 -3.576,35.583 -4.847,55.447c-1.469,24.726 -5.614,45.54 -22.372,64.743c-19.84,22.848 -50.746,26.5 -79.384,27.707c-10.694,0.434 -21.329,-2.199 -32.239,-7.111c-2.71,3.494 -5.793,7.138 -8.463,11.266c-15.917,22.34 -27.995,48.771 -36.787,74.735c-10.633,31.06 -19.809,74.789 -30.035,118.075c-5.114,21.642 -10.227,43.286 -14.897,63.879c-4.823,20.221 -9.091,39.129 -11.244,55.221c-2.042,15.829 -1.968,28.843 -1.133,37.85c26.702,59.795 51.161,126.37 69.744,198.812c10.098,39.806 18.523,81.38 24.708,123.863c4.695,-16.256 9.71,-35.468 15.099,-54.831c6.966,-24.571 13.821,-48.878 20.3,-67.164c3.35,-9.405 6.712,-16.64 9.299,-22.04c2.477,-5.137 4.067,-8.175 4.067,-8.175c0.111,-0.263 1.632,-2.402 3.637,-4.956c0.817,-1.202 -2.086,-18.499 -2.361,-20.779c-2.786,-23.431 -1.454,-52.232 20.453,-66.79c27.795,-18.255 61.131,-2.025 90.11,4.019c6.851,1.345 50.204,16.546 53.44,13.275c-18.112,18.013 -26.164,35.634 -35.541,50.532c-9.115,15.01 -19.292,27.407 -39.993,36.909c-8.43,3.862 -16.306,6.412 -23.628,7.649c-7.695,1.39 -14.243,0.791 -19.865,-1.271c-5.62,-2.063 -11.172,-5.023 -17.773,-8.427c-4.087,-2.033 -8.437,-4.178 -13.534,-6.019l-1.55,3.673c-0,-0 -6.334,10.619 -12.632,27.744c-6.147,17.497 -13.003,41.805 -19.859,66.113c-6.593,24.418 -13.187,48.837 -18.768,67.192c-2.603,9.102 -4.915,16.781 -6.494,21.987c-7.533,23.714 11.458,49.036 8.112,72.351c4.158,-18.646 16.414,-40.366 36.504,-45.49c10.418,-2.714 21.717,-1.655 32.34,-1.191c22.255,0.735 44.498,-0.699 66.618,-4.039c-20.649,12.307 -23.441,34.311 -30.018,55.027c-4.154,12.776 -8.68,25.702 -16.77,36.816c-9.459,13.628 -24.469,24.295 -41.185,24.351c-6.507,0.037 -28.909,-6.943 -33.584,-0.26c-5.379,7.621 2.91,25.337 3.968,33.82c3.71,27.839 3.497,56.185 6.197,84.216c2.591,28.293 5.071,56.85 5.271,85.68c0.156,14.284 -0.436,28.871 -1.551,43.238c-1.116,14.365 -3.654,28.44 -6.082,42.253c-5.117,27.514 -11.173,54.322 -17.906,80.536c-13.466,52.429 -29.417,101.955 -44.522,148.746c-1.91,5.994 -3.973,11.614 -5.884,17.608c2.116,-2.815 4.232,-5.632 6.459,-8.711c10.426,-14.455 22.181,-32.06 35.126,-51.017c13.206,-18.846 26.744,-38.48 39.345,-58.819c25.834,-40.718 48.894,-82.917 64.528,-115.576c15.786,-32.286 25.196,-54.589 25.196,-54.589c2.879,-6.822 12.281,-17.382 11.829,-24.373c-0.462,-9.159 -14.582,-26.244 -19.342,-34.743c-6.348,-11.333 -12.472,-23.19 -13.927,-35.859c-2.8,-25.6 15.011,-50.231 37.676,-62.923c19.832,-11.106 44.966,-17.192 67.471,-18.515c21.234,-1.241 36.584,-4.655 57.56,-11.878c7.987,-2.812 15.974,-5.625 24.277,-5.522c-33.539,14.287 -32.159,53.506 -35.316,83.702c-2.728,26.976 -0.896,53.405 -23.11,73.088c-8.556,7.826 -19.336,12.86 -30.348,16.25c-18.295,5.262 -35.093,4.048 -53.506,1.534c-4.002,13.148 -8.348,24.914 -8.68,25.701c-5.839,12.373 -11.001,25.341 -16.951,37.977c-2.254,4.612 -24.067,42.391 -20.423,45.474c4.887,4.535 35.327,-22.186 40.439,-24.047c3.994,-1.406 8.25,-2.701 12.436,-3.099c11.065,-0.585 21.2,6.163 30.216,13.367c19.081,14.852 44.481,22.786 67.117,31.41c-18.574,8.854 -30.808,21.001 -46.938,32.124c-22.198,15.98 -45.777,32.304 -73.064,34.701c-18.277,1.561 -24.127,-8.017 -35.861,-19.767c-9.553,-9.595 -9.441,-29.639 -19.852,-18.886c-11.378,11.582 -29.804,46.463 -38.891,59.938c-9.417,14.263 -19.098,28.415 -29.04,42.457c-12.835,18.694 -24.59,36.299 -35.237,51.28c-12.764,17.797 -27.144,34.293 -37.242,53.832c-9.878,19.015 -16.455,39.732 -26.181,59.119c-20.348,38.706 -42.973,71.815 -64.392,99.87c-12.958,16.788 -25.028,31.478 -36.545,44.855c25.51,-12.11 59.574,-26.175 94.699,-37.628c12.505,-3.996 25.272,-7.883 37.556,-11.354c-2.693,-0.209 -5.014,-0.571 -7.597,-1.042c-16.842,-15.761 -23.976,-47.208 -9.912,-66.62c14.063,-19.412 28.64,-40.771 48.943,-54.46c5.625,-3.808 11.886,-7.658 14.543,-13.955c-5.429,38.51 27.177,71.123 8.279,108.587c-3.735,7.387 -8.228,12.909 -13.177,17.313c8.179,-1.804 15.723,-3.566 23.046,-4.805c27.978,-5.504 46.962,-8.004 46.962,-8.004c0.746,-0.303 13.456,-1.123 26.096,-1.044c12.64,0.078 24.837,1.207 24.961,3.113c0.012,2.169 -11.787,5.227 -23.74,7.912c-4.78,1.074 -9.56,2.147 -13.706,3.18c8.467,2.646 16.007,6.754 22.398,12.851c18.651,18.069 26.94,35.785 30.823,54.423c3.883,18.639 3.771,38.683 3.947,63.176c-21.763,-12.891 -40.619,-14.357 -57.166,-17.629c-16.659,-3.01 -30.858,-7.456 -46.802,-23.147c-17.449,-17.252 -19.384,-35.378 -21.797,-58.961c-0.969,0.828 -1.674,1.767 -2.641,2.595c4.354,-3.726 19.495,-24.23 3.51,-20.774c-25.81,5.492 -57.963,13.563 -89.094,23.61c-35.498,11.605 -69.935,25.821 -95.183,38.042c-12.492,6.165 -22.747,11.421 -30.016,15.463c-0.857,0.566 -1.604,0.869 -2.087,1.283c-13.826,15.186 -25.273,27.665 -33.155,36.086c-9.068,9.773 -14.086,15.074 -14.086,15.074c-7.065,7.219 -16.475,9.74 -21.1,5.316c-4.624,-4.424 -2.697,-14.12 4.105,-21.45c-0,-0 4.908,-5.039 13.977,-14.812c9.069,-9.774 22.563,-24.172 38.988,-42.588c16.536,-18.677 36.266,-41.263 57.09,-68.641c0.817,-1.201 2.006,-2.554 2.821,-3.755c-0.98,-1.341 -1.586,-2.833 -0.991,-3.509c-0,-0 2.82,-3.756 6.031,-11.365c3.21,-7.609 6.396,-19.557 6.946,-34.779c0.813,-15.112 -0.749,-33.39 -3.028,-52.897c-2.017,-19.397 -5.65,-40.093 -10.028,-60.487c-8.645,-41.047 -21.92,-80.65 -33.863,-109.488c-11.943,-28.84 -21.696,-47.483 -21.696,-47.483c-0.304,-0.746 -5.986,-13.653 -11.517,-26.186c-0.606,-1.492 -1.364,-3.358 -1.971,-4.851c-0.332,0.787 -0.513,1.948 -0.845,2.735c-13.412,15.669 -42.186,32.584 -56.728,26.756c-16.905,-6.823 -19.369,-19.299 -27.302,-33.464c-7.671,-14.055 -26.354,-24.72 -40.454,-31.596c-2.513,-1.37 -5.399,-2.588 -8.286,-3.806c21.287,1.564 45.354,-1.264 61.653,-15.714c14.736,-12.947 30.849,-20.367 50.791,-11.953c23.202,9.48 28.506,28.409 23.569,54.764c6.778,8.113 33.956,39.672 28.974,51.48c4.429,-10.496 3.45,-31.619 7.767,-41.852c6.421,-15.218 13.92,-31.527 29.025,-38.755c17.454,-8.399 29.872,-7.796 48.339,-2.477c22.734,6.192 50.795,1.959 74.309,0.443c-10.292,-1.251 -20.628,2.733 -29.308,8.653c-18.065,12.778 -22.535,22.638 -23.129,43.097c-0.607,18.29 -2.211,38.94 -15.594,53.076c-9.331,9.663 -19.779,13.91 -33.911,14.438c-11.329,0.474 -25.141,-1.953 -41.136,-6.538c0.455,1.12 0.911,2.239 1.517,3.731c12.246,29.586 25.976,70.306 34.815,112.364c4.42,21.028 7.94,41.986 10.26,62.13c2.169,19.769 4.034,38.793 2.93,55.328c-0.127,3.964 -0.516,7.819 -1.057,11.3c11.16,-16.929 22.239,-35.128 32.821,-55.081c9.394,-18.601 18.706,-38.472 26.14,-59.754c7.545,-21.545 15.007,-44.36 22.69,-67.701c15.258,-46.417 30.835,-95.792 44.121,-147.06c6.511,-25.689 12.719,-52.125 17.505,-78.852c1.996,-10.594 4.92,-22.652 4.486,-33.344c-19.697,15.181 -42.579,22.526 -67.454,14.813c-22.14,-6.868 -40.225,-24.081 -49.879,-45.154c-10.607,-23.948 -6.719,-50.746 -15.902,-74.403c-7.475,-18.917 -27.306,-27.593 -43.669,-37.898c12.632,-7.96 60.47,13.46 75.444,16.069c24.256,4.051 46.556,-0.449 67.998,15.399c16.9,12.694 19.003,27.491 27.514,44.682c6.166,12.492 8.84,2.493 9.386,-6.859c0.787,-19.45 -4.034,-38.794 -5.789,-58.079c-1.163,-14.092 -2.589,-28.294 -3.643,-42.648c-0.123,-1.906 -0.246,-3.813 -0.368,-5.719c-1.624,-9.339 -4.047,-21.18 -7.601,-34.735c-6.613,-25.353 -17.822,-56.665 -34.074,-87.013c-3.932,-7.532 -13.948,13.279 -15.055,15.902c-5.314,12.595 -10.53,22.758 -24.789,27.251c-20.755,6.698 -32.21,-8.645 -50.775,-11.532c-14.186,-2.276 -32.796,0.072 -46.806,2.507c0.209,-2.694 1.579,-5.207 3.211,-7.61c17.123,-27.394 40.084,-67.162 77.118,-64.827c8.081,0.628 22.777,6.828 30.074,1.253c6.925,-5.424 -11.574,-23.12 -16.695,-29.3c-17.473,-21.591 -37.034,-41.898 -57.521,-60.742c-18.196,-16.95 -32.291,-29.697 -38.945,-35.905c-8.54,4.124 -19.968,7.029 -31.972,6.91c-14.92,0.196 -30.127,-4.057 -40.578,-13.72c-8.834,-8.364 -15.238,-16.63 -19.323,-24.535c-4.083,-7.905 -6.522,-16.043 -8.325,-24.223c-3.235,-16.51 -3.485,-34.234 -7.614,-56.685c21.686,5.75 43.538,8.169 65.933,7.109c7.888,-0.381 15.666,-0.499 23.375,0.28c14.739,0.964 31.065,4.761 39.248,16.87c4.94,7.338 5.818,16.981 5.494,25.808c-0.616,10.25 -2.765,20.47 -6.75,29.917c-3.1,7.346 -10.648,14.98 -7.917,21.696c4.854,11.939 28.908,26.724 38.269,35.31c26.202,24.347 60.464,58.894 86.724,99.956c11.467,17.511 20.959,36.044 30.076,54.727c-7.739,-32.938 -8.268,-66.853 -11.822,-100.189c-5.733,-55.276 -15.987,-109.365 -28.99,-160.599c-18.584,-72.442 -43.458,-139.5 -70.269,-199.033c2.082,4.588 -28.275,32.581 -31.662,35.479c-14.071,11.372 -30.849,20.367 -48.975,22.301c-22.423,2.593 -45.654,-5.353 -61.599,-21.045c-14.55,-13.866 -29.978,-17.593 -48.235,-25.606c-4.986,-2.104 -10.082,-3.944 -15.773,-5.109c-5.691,-1.165 -11.824,-1.281 -18.581,0.814c5.605,-14.017 18.225,-24.147 28.95,-31.985c11.099,-7.99 21.161,-14.254 30.214,-20.326c18.631,-11.922 38.365,-20.595 71.562,-22.352c13.609,-0.75 28.459,-0.048 42.091,3.54c10.11,2.412 20.123,7.254 27.33,12.15c-3.214,-6.302 -6.427,-12.604 -9.643,-18.905c-10.015,-18.754 -19.727,-36.761 -29.358,-53.497c-2.567,-4.174 -4.87,-8.237 -7.175,-12.301c-2.415,-3.8 -4.83,-7.601 -7.244,-11.401c-4.941,-7.34 -10.102,-14.154 -15.375,-20.706c-17.019,-20.472 -34.316,-37.352 -49.805,-51.923c-1.464,-0.927 -3.038,-1.591 -4.764,-2.629c-7.168,-4.261 -18.118,-9.808 -31.168,-16.241c-26.101,-12.867 -62.12,-27.137 -99.314,-37.885c-11.049,-3.116 -63.959,-22.04 -67.453,-4.969c-2.149,10.221 26.359,18.849 28.407,30.841c3.977,22.078 -33.879,46.598 -49.414,57.043c-23.621,15.689 -49.615,28.212 -70.296,47.924c7.241,-22.291 2.797,-47.657 -7.231,-68.579c-3.214,-6.302 -6.953,-12.825 -8.039,-19.774c-1.181,-10.39 4.035,-20.553 11.735,-27.814c7.7,-7.26 17.097,-11.95 26.646,-16.266c4.961,-2.235 36.925,-17.184 31.538,-17.603c-14.518,-1.489 -26.412,-1.871 -34.867,-2.348c-8.564,-0.213 -13.164,-0.299 -13.164,-0.299c-0.637,0.04 -9.615,-0.657 -20.017,-1.646c0.152,0.373 0.042,0.636 0.193,1.009c0.549,4.559 -10.427,14.456 -12.875,18.059c-13.054,19.22 -22.489,37.185 -44.56,49.201c-15.769,8.801 -38.155,17.901 -55.846,10.746c-7.61,-3.21 -14.556,-7.996 -21.612,-12.518c-32.048,-20.014 -62.06,-30.204 -100.236,-22.51c25.072,-16.932 49.165,-35.203 72.429,-54.443c18.536,-15.361 22.448,-37.82 40.639,-54.562c8.074,-7.413 16.976,-13.857 27.352,-17.206c15.379,-4.949 32.674,-1.979 46.703,5.796c14.03,7.774 25.433,20.312 33.587,33.952c4.001,6.634 5.329,23.267 10.853,27.762c13.226,11.143 55.615,1.519 72.828,3.218c29.671,2.938 69.011,9.335 107.104,20.153c32.361,9.017 63.918,21.405 89.149,32.669c-4.887,-4.535 -9.249,-8.848 -12.672,-12.457c-9.553,-9.594 -14.632,-15.137 -14.632,-15.137c-1.768,-1.673 -16.069,-17.597 -32.697,-41.923c-9.275,-13.186 -20.094,-28.569 -32.447,-43.981c-0.414,-0.484 -1.201,-0.817 -1.615,-1.301c-6.807,-6.58 -13.28,-13.948 -18.675,-22.406c-3.838,-4.092 -7.676,-8.184 -11.512,-12.276c-6.544,-6.47 -13.046,-12.305 -20.336,-18.471c-7.028,-6.056 -13.681,-12.263 -20.074,-18.36c-12.894,-11.932 -24.697,-22.785 -35.107,-31.814c-3.797,-3.456 -7.552,-6.277 -11.045,-8.987c-7.987,2.812 -20.324,3.48 -32.575,-0.453c-12.886,-3.892 -25.838,-12.756 -32.64,-25.207c-11.713,-21.325 -13.344,-38.705 -10.928,-54.686c2.414,-15.981 8.946,-31.462 16.544,-50.201c-3.928,6.378 23.813,24.883 35.895,32.144Z" style="fill:#57702f;fill-rule:nonzero;"/><path d="M3098.07,226.295c-12.68,3.54 -24.803,8.1 -37.767,8.227c-59.204,0.652 -104.415,-4.026 -157.039,29.212c-21.881,13.74 -37.534,21.818 -63.531,21.801c-25.027,0.314 -50.466,2.478 -75.562,2.52c-29.186,0.219 -50.472,-1.006 -77.184,-11.877c-14.848,-6.07 -28.044,-18.372 -41.303,-27.463c-11.454,-7.811 -24.431,-14.651 -35.193,-23.22c-10.967,-7.064 -20.407,-12.778 -27.694,-17.009c-8.201,-10.097 -16.678,-20.124 -25.57,-29.463l84.407,-17.566c27.072,18.04 67.427,21.058 99.527,21.835c66.279,1.601 154.294,-14.567 199.809,-67.475c22.551,-26.111 21.318,-53.969 31.243,-84.396c0.275,-1.232 1.512,-6.777 4.275,-12.132c2.486,-5.284 6.567,-10.106 7.745,-10.118c-25.858,0.528 -46.285,13.025 -70.113,23.779c-29.299,13.608 -53.501,10.226 -84.346,13.194c-21.072,1.915 -42.209,5.881 -63.479,12.784c-28.891,9.438 -55.486,23.225 -80.135,39.998c-4.777,3.258 -45.695,31.462 -55.79,45.087l-80.18,16.773c-2.494,0.64 -4.849,1.824 -6.44,3.684c1.384,-1.516 -67.861,-66.547 -76.613,-75.341c-20.56,-20.29 -41.19,-40.853 -62.234,-60.728c-19.377,-17.979 -39.238,-35.544 -59.999,-52.006c2.635,-0.095 6.17,-0.129 10.884,-0.176c8.597,0.12 19.761,1.035 30.856,2.838c15.188,2.788 29.48,7.839 43.978,12.546c17.759,5.904 23.401,19.852 44.475,19.098c15.529,-0.494 30.005,-7.399 37.268,-15.941c7.817,-8.684 8.207,-22.145 -1.652,-29.493c-4.373,-3.236 -9.784,-4.754 -15.055,-5.726c-9.847,-1.543 -20.244,-0.621 -29.528,2.34c-9.839,3.102 -16.825,11.573 -25.692,15.007c-13.717,5.258 -36.897,-7.97 -51.391,-10.355c-1.526,-0.19 -3.121,-0.652 -4.924,-0.771c12.955,-4.772 23.343,-10.339 23.343,-10.339c7.218,3.959 21.149,1.841 32.639,-7.494c7.614,-6.018 12.175,-13.577 13.965,-20.425c3.164,-13.01 -13.919,-27.801 -26.324,-25.493c-7.346,1.302 -15.384,3.362 -19.393,9.617c-1.521,2.133 -2.071,4.597 -2.551,7.334c-2.4,13.686 -9.31,25.913 -22.12,33.553c-11.772,7.083 -35.422,2.398 -44.348,11.366c-2.564,0.367 -4.919,1.551 -6.303,3.067c-21.245,-16.048 -43.596,-30.651 -67.122,-42.919c-11.936,-6.235 -59.557,-38.759 -73.416,-35.208c2.218,-0.568 4.435,-1.136 6.652,-1.704c13.235,-3.683 26.607,-7.981 36.375,-11.356c4.92,-1.551 8.937,-3.162 11.917,-4.216c2.979,-1.054 4.572,-1.753 4.572,-1.753c18.388,8.358 41.201,10.934 64.213,8.521c106.398,-10.133 201.144,-94.538 226.184,-196.222c5.503,-22.323 8.025,-44.753 6.666,-66.188c-0.585,-16.115 1.042,-35.121 -3.217,-50.585c-5.167,-19.007 -15.737,-36.049 -22.497,-54.357c-7.738,-22.124 -27.248,-37.164 -34.017,-60.118c11.794,40.254 1.34,83.596 -14.322,122.755c-9.659,24.549 -25.03,34.878 -44.132,51.392c-55.647,47.954 -103.936,100.412 -147.361,159.175c-2.005,2.547 -10.924,14.999 -21.574,28.765c-10.65,13.767 -23.101,28.576 -27.52,37.841c0,-0 -1.316,0.627 -4.018,1.61c-2.424,0.912 -5.958,2.108 -10.323,3.517c-22.101,7.117 -50.431,19.897 -73.385,16.775c-16.574,-2.432 -31.987,-14.166 -47.734,-19.134c-28.996,-9.414 -58.338,-17.869 -88.437,-23.515c-11.79,-2.206 -23.025,-4.555 -34.398,-6.287c-45.353,-6.385 -88.199,-7.602 -125.77,-5.524c-37.709,2.693 -69.935,8.339 -95.715,13.784c-26.818,6.002 -111.321,9.362 -110.204,49.448c-0.054,7.856 4.326,14.575 12.515,18.866c2.082,1.209 4.095,2.146 6.661,2.94c19.287,7.256 45.61,-4.138 64.667,-8.151c41.718,-8.949 83.016,-19.534 125.784,-23.234c33.966,-2.315 72.443,-2.011 114.257,3.247c83.561,11.404 179.71,43.109 275.612,91.142c7.495,3.888 15.06,8.048 22.347,12.28c0.57,7.986 1.354,19.113 2.346,29.896c1.496,20.819 3.893,41.698 3.893,41.698c-18.188,23.54 -23.729,61.847 -23.807,93.816c-0.358,29.718 4.761,60.065 14.313,88.114c3.695,10.961 7.875,21.508 12.817,31.568c14.13,29.78 32.761,56.374 54.642,78.358c15.42,15.218 37.066,23.612 41.825,46.79c2.938,13.769 -0.638,28.627 -9.63,39.645c2.844,0.723 4.987,-2.44 6.091,-5.047c4.624,-10.77 11.741,-23.34 13.799,-34.904c1.645,-9.716 0.099,-20.357 0.496,-30.334c1.057,-26.992 1.42,-54.387 -0.504,-81.487c-2.638,-37.953 -9.087,-74.64 -22.814,-110.913c-9.338,-24.909 -21.305,-47.401 -34.868,-70.355c-1.46,-2.24 -7.65,-12.562 -15.161,-24.579c-7.371,-11.471 -15.368,-24.234 -21.132,-29.437c0,-0 -1.908,-18.971 -3.47,-37.741c-0.356,-4.846 -0.642,-9.42 -0.928,-13.994c31.514,20.387 61.441,44.957 90.956,71.375c20.765,18.785 41.532,38.731 62.577,58.607c10.557,10.074 21.114,20.148 31.878,29.878c8.82,7.905 1.444,29.837 -2.975,39.102c-2.76,6.516 -6.769,12.772 -10.089,17.108c-7.26,9.703 -17.872,7.485 -29.659,6.44c-7.628,-0.95 -14.618,5.198 -16.892,12.461c-2.136,6.647 -5.222,24.574 -0.773,30.405c5.978,8.343 22.268,7.363 30.858,4c12.538,-5.247 14.251,-15.851 17.28,-27.084c3.305,-11.303 9.809,-18.198 16.029,-28.506c0.297,10.38 0.461,23.699 -0.276,36.958c-0.525,15.238 -1.188,31.092 -3.793,46.282c-3.02,15.877 -12.254,8.659 -22.909,20.103c-5.05,5.651 -8.295,12.582 -11.61,19.241c-2.071,4.597 -4.212,8.921 -5.588,13.921c-3.511,12.809 -0.643,26.305 2.363,39.186c3.076,13.153 8.927,27.918 24.654,22.436c14.895,-5.27 28.937,-21.939 33.484,-36.465c8.063,-25.012 -9.711,-39.045 -10.101,-61.31c-0.247,-20.558 5.396,-42.336 6.257,-63.178c0.665,-14.693 0.428,-29.445 -0.009,-40.37c-0.214,-3.14 -0.358,-6.008 -0.432,-8.603c2.578,6.601 5.642,13.948 8.637,21.022c5.291,11.424 10.165,22.374 13.231,30.882c3.067,8.508 4.811,14.161 4.881,14.433c1.674,5.38 -14.733,17.427 -15.968,24.134c-0.618,3.353 -0.264,7.038 0.02,10.451c0.635,5.936 1.478,11.529 2.113,17.466c0.492,3.069 0.636,5.936 1.404,8.934c2.445,9.539 19.052,29.39 29.869,30.103c16.986,0.584 18.188,-23.54 21.079,-34.156c2.891,-10.617 6.348,-15.569 3.761,-26.814c-1.888,-8.52 -5.509,-16.887 -11.623,-23.452c-4.932,-5.416 -16.576,-3.594 -18.529,-10.064c-0.07,-0.273 -1.884,-6.197 -5.021,-14.978c-3.206,-9.054 -8.497,-20.477 -13.441,-31.7c-5.221,-11.151 -9.61,-22.515 -12.053,-30.893c-0.559,-2.18 -1.048,-4.088 -1.467,-5.723c3.056,2.702 5.834,5.475 8.89,8.177c7.779,7.301 16.799,11.379 23.539,19.237c26.263,29.865 53.772,58.83 70.274,95.554c10.861,23.937 19.939,58.207 11.324,84.522c-3.446,10.758 -14.663,17.7 -21.023,27.462c-8.295,12.582 -14.785,26.444 -20.998,40.236c-18.776,41.989 -28.804,90.45 -31.906,135.974c-1.012,14.491 2.129,25.594 -11.162,35.972c-4.914,3.873 -11.08,6.325 -17.038,8.433c-13.716,5.258 -27.086,10.718 -40.803,15.976c-2.147,0.841 -6.03,0.674 -5.757,-1.72c0.489,1.908 0.908,3.543 1.12,5.522c2.289,0.866 4.923,0.772 7.35,1.021c34.874,1.228 65.309,1.269 92.718,-22.02c12.596,-10.781 23.873,-23.255 33.344,-37.01c9.471,-13.755 17.208,-28.518 23.141,-43.399c5.864,-15.154 10.202,-30.498 13.012,-47.192c3.354,-22.643 3.311,-44.707 0.15,-66.261c-0.494,-4.23 -6.039,-39.696 -11.882,-49.816c0,-0 2.675,-14.918 4.796,-29.693c-0.07,-0.273 0.138,-0.616 0.068,-0.889c14.491,36.949 25.241,75.437 34.396,113.463c12.788,52.198 22.801,103.945 36.136,152.518c9.493,33.582 35.571,75.403 29.259,109.551c-1.235,6.707 -3.506,15.131 -5.638,24.1c-7.708,29.859 -9.578,30.628 -32.975,48.824c-15.784,12.178 -28.232,28.148 -39.779,44.177c-14.311,20.224 -25.36,42.806 -32.732,67.06c-2.893,9.455 -5.162,19.04 -6.53,28.685c-8.276,58.758 13.385,111.006 27.705,166.877c2.375,9.267 4.613,19.15 1.232,27.858c6.995,-3.826 9.197,-12.523 10.776,-20.189c2.817,-13.211 6.259,-26.292 9.7,-39.372c8.056,-28.496 32.628,-49.025 49.36,-72.483c18.323,-25.318 32.204,-52.983 38.593,-83.375c5.839,-27.927 6.405,-57.988 1.845,-86.155c-2.386,-15.072 -10.94,-28.855 -12.979,-43.726c-2.251,-16.85 3.547,-29.954 7.329,-46.317c1.253,2.584 2.505,5.167 3.758,7.751c22.268,43.088 54.297,79.317 58.831,129.274c2.476,25.796 1.989,25.05 -15.252,36.149c-20.218,13.314 -26.866,17.341 -19.741,45.141c0.838,3.271 2.094,7.015 5.147,8.556c14.086,6.556 38.414,3.515 46.777,-9.955c2.972,-4.538 4.833,-9.953 5.863,-15.154c0.685,-4.242 0.679,-7.726 0.465,-10.866c-0.284,-3.412 -0.776,-6.481 -1.751,-9.136c-1.744,-5.652 -4.595,-9.859 -7.858,-12.218c0,0 0.131,-4.1 -0.02,-10.451c-0.151,-6.351 -0.444,-14.409 -1.153,-22.94c-0.496,-5.392 -1.269,-10.712 -1.972,-15.76c17.034,24.97 31.843,47.024 44.565,65.547c8.412,12.076 15.85,22.659 22.038,31.82c1.787,27.715 15.712,59 28.309,83.945c32.849,65.935 84.602,120.346 143.891,163.821c13.469,9.908 27.212,18.585 36.253,33.114c6.467,10.25 10.789,22.503 8.177,34.21c-1.512,6.777 -5.104,13.507 -3.428,20.048c3.811,-1.267 5.674,-5.521 7.123,-9.087c17.722,-49.561 4.716,-107.222 -12.362,-155.416c-14.497,-40.432 -36.616,-78.331 -67.668,-110.744c-20.979,-21.926 -44.239,-40.072 -69.434,-55.398c-4.928,-3.093 -46.573,-28.436 -62.248,-31.97c-5.965,-1.376 -17.583,-22.505 -21.475,-27.317c-10.007,-12.538 -26.673,-26.855 -33.564,-41.064c-1.113,-2.038 -1.394,-4.289 -2.161,-6.126c-3.693,-9.8 -13.34,-15.17 -18.486,-23.726c-5.077,-8.284 -8.7,-17.811 -13.57,-26.438c-12.659,-21.734 -24.834,-43.883 -35.693,-66.659c-2.159,-4.965 -4.525,-9.587 -6.683,-14.552c-1.882,-5.037 -4.041,-10.002 -5.992,-15.311c-1.951,-5.309 -4.11,-10.274 -6.062,-15.583c-1.674,-5.379 -3.625,-10.688 -5.369,-16.341c-3.973,-10.89 -6.837,-22.064 -10.117,-33.713c-0.489,-1.907 -0.978,-3.815 -1.467,-5.723c3.127,4.136 6.185,7.999 8.686,10.844c3.335,3.792 5.42,6.162 5.42,6.162c-3.175,7.204 -0.591,17.288 3.859,24.28c2.991,4.752 6.323,7.383 10.488,9.801c3.817,2.217 8.813,4.422 14.011,3.961c4.922,-0.39 9.352,-3.849 11.142,-10.697c1.582,-6.505 0.178,-15.44 -4.342,-22.704c-7.301,-11.199 -17.638,-14.65 -25.191,-13.004c-0,-0 -2.085,-2.37 -5.142,-6.234c-3.266,-3.52 -6.88,-8.402 -10.564,-13.557c-3.337,-4.954 -5.566,-10.192 -6.891,-14.209c-0.07,-0.273 -0.07,-0.273 -0.14,-0.545c5.417,5.001 11.876,10.607 18.749,15.526c15.55,11.118 39.2,15.803 51.499,30.368c8.06,9.552 11.611,17.646 24.377,22.507c11.17,4.398 43.002,9.891 50.046,-4.113c4.766,-9.064 -5.782,-14.493 -10.994,-20.999c-7.506,-9.694 -13.002,-19.613 -25.213,-24.616c-7.285,-3.071 -15.952,-3.463 -23.643,-1.202c-3.811,1.267 -14.749,9.299 -18.911,8.042c0,-0 -5.48,-1.79 -13.182,-5.335c-7.702,-3.544 -17.626,-8.843 -26.651,-15.243c-2.916,-2.158 -5.832,-4.315 -8.748,-6.472c0.277,-0.071 0.902,0.06 1.179,-0.012c16.085,0.525 31.886,-2.363 31.886,-2.363c5.419,6.163 19.012,8.488 32.658,2.957c8.868,-3.434 15.651,-9.239 19.245,-14.807c3.524,-5.841 3.86,-11.445 1.01,-15.653c-2.851,-4.207 -8.054,-6.068 -14.086,-6.555c-6.033,-0.487 -12.478,0.874 -19.544,3.266c-10.461,4.133 -18.837,10.637 -21.595,18.315c-0,-0 -14.623,2.876 -29.252,2.269c-5.962,-0.215 -11.995,-0.702 -16.919,-1.473c-5.349,-5.89 -8.477,-10.026 -8.477,-10.026c-2.224,-2.916 -5.347,-4.729 -7.981,-4.635c-8.605,-40.49 -16.244,-82.971 -25.41,-126.803c-11.057,-53.513 -25.931,-109.243 -50.645,-163.031c-2.019,-4.42 -4.246,-8.497 -6.542,-12.846c16.587,9.4 34.008,19.748 51.499,30.368c32.553,19.831 64.553,40.964 88.64,56.575c11.731,7.739 24.499,13.761 35.331,22.603c38.121,31.183 53.227,63.617 104.49,79.233c23.377,7.079 48.063,10.047 71.785,16.166c21.224,5.597 35.105,13.657 46.649,32.192c4.521,7.264 8.971,14.256 13.491,21.52c-2.095,-8.176 -3.984,-16.696 -6.079,-24.872c-0.978,-3.816 -2.026,-7.904 -4.32,-11.092c-8.898,-12.823 -11.345,-23.523 -17.058,-37.743c-5.572,-13.675 -14.61,-27.043 -25.654,-37.863c-21.741,-21.44 -50.33,-35.025 -80.291,-41.288c-32.666,-6.44 -66.559,-2.691 -95.989,-20.708c-11.244,-6.993 -21.245,-16.048 -32.904,-22.354c-19.778,-10.325 -33.801,-20.092 -50.951,-33.994c44.034,5.85 91.146,-9.71 134.216,-0.707c14.91,2.859 28.857,8.869 43.493,12.96c36,10.233 79.052,9.946 113.755,-5.629c25.698,-11.523 49.792,-28.155 66.598,-49.018c8.577,-10.33 15.421,-20.507 22.681,-30.21c0.692,-0.758 2.903,-4.81 5.807,-8.459c2.628,-3.578 5.95,-6.753 7.058,-7.037c-7.695,-0.061 -15.526,1.655 -23.217,3.917Z" style="fill:#284f2a;fill-rule:nonzero;"/></g><defs><linearGradient id="_Linear1" x1="0" y1="0" x2="1" y2="0" gradientUnits="userSpaceOnUse" gradientTransform="matrix(176.416,-1527.35,-1827.3,-211.062,805.684,2312.04)"><stop offset="0" style="stop-color:#35447a;stop-opacity:1"/><stop offset="1" style="stop-color:#4961d6;stop-opacity:1"/></linearGradient><linearGradient id="_Linear2" x1="0" y1="0" x2="1" y2="0" gradientUnits="userSpaceOnUse" gradientTransform="matrix(-503.134,-1452.85,-1452.85,503.133,3244.56,1569.38)"><stop offset="0" style="stop-color:#35447a;stop-opacity:1"/><stop offset="1" style="stop-color:#4961d6;stop-opacity:1"/></linearGradient></defs></svg>